<svg width="876" height="551" viewBox="0 0 876 551" fill="none" xmlns="http://www.w3.org/2000/svg">
<g filter="url(#filter0_d_125_3733)">
<g filter="url(#filter1_d_125_3733)">
<mask id="mask0_125_3733" style="mask-type:alpha" maskUnits="userSpaceOnUse" x="236" y="125" width="124" height="95">
<path d="M358.713 219.246H237.778C233.661 193.391 239.989 138.507 298.246 125.803C356.503 138.507 362.831 193.391 358.713 219.246Z" fill="#E8CDC2"/>
</mask>
<g mask="url(#mask0_125_3733)">
<path d="M358.713 219.246H237.778C233.661 193.391 239.989 138.507 298.246 125.803C356.503 138.507 362.831 193.391 358.713 219.246Z" fill="#DBB6A9"/>
<path d="M360.951 192.811C360.951 215.22 312.662 211.254 290.254 211.254C267.846 211.254 264.434 198.007 264.434 175.598C264.434 153.19 281.37 126.418 303.779 126.418C346.811 126.418 360.951 170.403 360.951 192.811Z" fill="#E8CDC2"/>
<path d="M307.783 184.257C291.987 181.719 296.302 157.717 302.104 148.408C312.524 131.689 330.221 147.453 337.16 159.235C348.973 179.295 323.002 186.703 307.783 184.257Z" fill="#F5E7DE"/>
</g>
</g>
<g filter="url(#filter2_d_125_3733)">
<mask id="mask1_125_3733" style="mask-type:alpha" maskUnits="userSpaceOnUse" x="515" y="125" width="124" height="95">
<path d="M637.812 219.246H516.877C512.759 193.391 519.087 138.507 577.344 125.803C635.601 138.507 641.929 193.391 637.812 219.246Z" fill="#E8CDC2"/>
</mask>
<g mask="url(#mask1_125_3733)">
<path d="M637.812 219.246H516.877C512.759 193.391 519.087 138.507 577.344 125.803C635.601 138.507 641.929 193.391 637.812 219.246Z" fill="#DBB6A9"/>
<path d="M640.049 192.811C640.049 215.22 591.761 211.254 569.352 211.254C546.944 211.254 543.533 198.007 543.533 175.598C543.533 153.19 560.469 126.418 582.877 126.418C625.91 126.418 640.049 170.403 640.049 192.811Z" fill="#E8CDC2"/>
<path d="M586.881 184.257C571.085 181.719 575.401 157.717 581.203 148.408C591.622 131.689 609.32 147.453 616.258 159.235C628.071 179.295 602.1 186.703 586.881 184.257Z" fill="#F5E7DE"/>
</g>
</g>
<g filter="url(#filter3_d_125_3733)">
<mask id="mask2_125_3733" style="mask-type:alpha" maskUnits="userSpaceOnUse" x="341" y="71" width="195" height="149">
<path d="M533.82 219.246H342.87C336.368 178.423 346.361 91.7628 438.345 71.7049C530.329 91.7628 540.322 178.423 533.82 219.246Z" fill="#E8CDC2"/>
</mask>
<g mask="url(#mask2_125_3733)">
<path d="M533.82 219.246H342.87C336.368 178.423 346.361 91.7628 438.345 71.7049C530.329 91.7628 540.322 178.423 533.82 219.246Z" fill="#E8CDC2"/>
<path d="M537.353 177.507C537.353 212.889 461.108 206.627 425.727 206.627C390.345 206.627 384.959 185.71 384.959 150.329C384.959 114.947 411.7 72.6755 447.081 72.6755C515.028 72.6755 537.353 142.126 537.353 177.507Z" fill="#F5E7DE"/>
<path d="M453.404 164.001C428.462 159.992 435.276 122.095 444.437 107.396C460.89 80.9977 488.833 105.889 499.788 124.492C518.441 156.165 477.434 167.863 453.404 164.001Z" fill="#FAF3ED"/>
</g>
</g>
<g filter="url(#filter4_d_125_3733)">
<path fill-rule="evenodd" clip-rule="evenodd" d="M240.459 218.016H633.901V291.787H240.459V218.016ZM246.606 248.968C246.606 248.827 246.636 248.689 246.696 248.562C247.25 247.401 250.302 241.377 253.983 241.377C257.665 241.377 260.717 247.401 261.271 248.562C261.331 248.689 261.361 248.827 261.361 248.968V273.574C261.361 274.126 260.913 274.574 260.361 274.574H247.606C247.054 274.574 246.606 274.126 246.606 273.574V248.968ZM267.598 248.562C267.537 248.689 267.508 248.827 267.508 248.968V273.574C267.508 274.126 267.956 274.574 268.508 274.574H281.262C281.815 274.574 282.262 274.126 282.262 273.574V248.968C282.262 248.827 282.233 248.689 282.173 248.562C281.619 247.401 278.567 241.377 274.885 241.377C271.204 241.377 268.152 247.401 267.598 248.562ZM288.41 248.968C288.41 248.827 288.439 248.689 288.5 248.562C289.054 247.401 292.105 241.377 295.787 241.377C299.469 241.377 302.52 247.401 303.074 248.562C303.135 248.689 303.164 248.827 303.164 248.968V273.574C303.164 274.126 302.716 274.574 302.164 274.574H289.41C288.858 274.574 288.41 274.126 288.41 273.574V248.968ZM309.401 248.562C309.34 248.689 309.311 248.827 309.311 248.968V273.574C309.311 274.126 309.759 274.574 310.311 274.574H323.065C323.618 274.574 324.065 274.126 324.065 273.574V248.968C324.065 248.827 324.036 248.689 323.976 248.562C323.422 247.401 320.37 241.377 316.688 241.377C313.007 241.377 309.955 247.401 309.401 248.562ZM330.213 248.968C330.213 248.827 330.242 248.689 330.303 248.562C330.857 247.401 333.908 241.377 337.59 241.377C341.272 241.377 344.324 247.401 344.877 248.562C344.938 248.689 344.967 248.827 344.967 248.968V273.574C344.967 274.126 344.519 274.574 343.967 274.574H331.213C330.661 274.574 330.213 274.126 330.213 273.574V248.968ZM528.254 248.562C528.193 248.689 528.164 248.827 528.164 248.968V273.574C528.164 274.126 528.612 274.574 529.164 274.574H541.918C542.47 274.574 542.918 274.126 542.918 273.574V248.968C542.918 248.827 542.889 248.689 542.828 248.562C542.274 247.401 539.223 241.377 535.541 241.377C531.859 241.377 528.807 247.401 528.254 248.562ZM549.066 248.968C549.066 248.827 549.095 248.689 549.155 248.562C549.709 247.401 552.761 241.377 556.443 241.377C560.124 241.377 563.176 247.401 563.73 248.562C563.791 248.689 563.82 248.827 563.82 248.968V273.574C563.82 274.126 563.372 274.574 562.82 274.574H550.066C549.513 274.574 549.066 274.126 549.066 273.574V248.968ZM570.057 248.562C569.996 248.689 569.967 248.827 569.967 248.968V273.574C569.967 274.126 570.415 274.574 570.967 274.574H583.721C584.274 274.574 584.721 274.126 584.721 273.574V248.968C584.721 248.827 584.692 248.689 584.632 248.562C584.078 247.401 581.026 241.377 577.344 241.377C573.663 241.377 570.611 247.401 570.057 248.562ZM590.869 248.968C590.869 248.827 590.898 248.689 590.959 248.562C591.513 247.401 594.564 241.377 598.246 241.377C601.928 241.377 604.979 247.401 605.533 248.562C605.594 248.689 605.623 248.827 605.623 248.968V273.574C605.623 274.126 605.175 274.574 604.623 274.574H591.869C591.317 274.574 590.869 274.126 590.869 273.574V248.968ZM611.86 248.562C611.8 248.689 611.771 248.827 611.771 248.968V273.574C611.771 274.126 612.218 274.574 612.771 274.574H625.525C626.077 274.574 626.525 274.126 626.525 273.574V248.968C626.525 248.827 626.496 248.689 626.435 248.562C625.881 247.401 622.829 241.377 619.148 241.377C615.466 241.377 612.414 247.401 611.86 248.562Z" fill="#E7D9D1"/>
</g>
<mask id="mask3_125_3733" style="mask-type:alpha" maskUnits="userSpaceOnUse" x="43" y="262" width="36" height="31">
<path d="M60.9509 262.115C77.2628 265.672 79.0348 281.039 77.8818 288.279C77.8818 288.279 67.7539 292.378 60.9509 292.378C54.148 292.378 44.02 288.279 44.02 288.279C42.867 281.039 44.639 265.672 60.9509 262.115Z" fill="#E8CDC2"/>
</mask>
<g mask="url(#mask3_125_3733)">
<path d="M82.1768 293.961H40.1297C38.698 284.324 40.8983 263.865 61.1533 259.129C81.4082 263.865 83.6085 284.324 82.1768 293.961Z" fill="#DBB6A9"/>
<path d="M78.5082 280.877C78.5082 287.151 64.9874 286.041 58.7131 286.041C52.4388 286.041 51.4836 282.332 51.4836 276.057C51.4836 269.783 56.2257 262.287 62.5 262.287C74.5492 262.287 78.5082 274.603 78.5082 280.877Z" fill="#F5E7DE"/>
<path d="M63.6215 278.482C59.1986 277.771 60.4069 271.051 62.0314 268.444C64.949 263.763 69.9042 268.177 71.847 271.476C75.1547 277.092 67.8829 279.167 63.6215 278.482Z" fill="#FAF3ED"/>
</g>
<path d="M60.8534 261.243C60.8534 261.243 53.1132 263.097 53.1132 265.385H68.5935C68.5935 263.097 60.8534 261.243 60.8534 261.243Z" fill="#DAC0AF"/>
<path d="M60.8531 252.521C60.8531 252.521 62.4883 251.936 62.4883 251.213L59.2178 251.213C59.2178 251.936 60.8531 252.521 60.8531 252.521Z" fill="#DAC0AF"/>
<path d="M60.8534 255.792C60.8534 255.792 61.3985 255.109 61.3985 254.266L60.3083 254.266C60.3083 255.109 60.8534 255.792 60.8534 255.792Z" fill="#DAC0AF"/>
<path d="M60.8532 255.138C60.8532 255.138 60.3081 255.626 60.3081 256.228H61.3983C61.3983 255.626 60.8532 255.138 60.8532 255.138Z" fill="#DAC0AF"/>
<path d="M60.8531 258.19C60.8531 258.19 59.654 259.362 59.654 260.807H62.0523C62.0523 259.362 60.8531 258.19 60.8531 258.19Z" fill="#DAC0AF"/>
<circle cx="60.8532" cy="257.645" r="1.63525" fill="#DAC0AF"/>
<circle cx="60.8531" cy="253.503" r="1.19918" fill="#DAC0AF"/>
<circle cx="60.8531" cy="260.698" r="1.19918" fill="#DAC0AF"/>
<path fill-rule="evenodd" clip-rule="evenodd" d="M43.7378 291.098C43.7378 289.442 45.0809 288.098 46.7378 288.098H73.9345C75.5914 288.098 76.9345 289.442 76.9345 291.098V304.771C76.9345 306.427 75.5914 307.771 73.9345 307.771H46.7378C45.0809 307.771 43.7378 306.427 43.7378 304.771V291.098ZM68.3279 294.016C68.3279 293.464 68.7756 293.016 69.3279 293.016H72.246C72.7982 293.016 73.246 293.464 73.246 294.016V301.853C73.246 302.405 72.7982 302.853 72.246 302.853H69.3279C68.7756 302.853 68.3279 302.405 68.3279 301.853V294.016ZM61.9508 293.016C61.3985 293.016 60.9508 293.464 60.9508 294.016V301.853C60.9508 302.405 61.3985 302.853 61.9508 302.853H64.8688C65.4211 302.853 65.8688 302.405 65.8688 301.853V294.016C65.8688 293.464 65.4211 293.016 64.8688 293.016H61.9508ZM53.5736 294.016C53.5736 293.464 54.0213 293.016 54.5736 293.016H57.4917C58.0439 293.016 58.4917 293.464 58.4917 294.016V301.853C58.4917 302.405 58.0439 302.853 57.4917 302.853H54.5736C54.0213 302.853 53.5736 302.405 53.5736 301.853V294.016ZM47.1968 293.016C46.6445 293.016 46.1968 293.464 46.1968 294.016V301.852C46.1968 302.405 46.6445 302.852 47.1968 302.852H50.1148C50.6671 302.852 51.1148 302.405 51.1148 301.852V294.016C51.1148 293.464 50.6671 293.016 50.1148 293.016H47.1968Z" fill="#E7D9D1"/>
<rect x="43.7378" y="305.312" width="33.1967" height="3.68852" fill="#AB9484"/>
<rect x="43.7378" y="286.869" width="33.1967" height="3.68852" fill="#AB9484"/>
<path d="M48.6557 309H70.7869L72.0164 365.557H47.4262L48.6557 309Z" fill="#F5EDE9"/>
<path d="M47.5492 369.246H71.8935L73.2459 436.869H46.1967L47.5492 369.246Z" fill="#F5EDE9"/>
<path d="M45.3362 444.246H74.1066L75.705 499.574H43.7378L45.3362 444.246Z" fill="#F5EDE9"/>
<rect x="46.1967" y="364.328" width="28.2787" height="6.14754" fill="#DAC0AF"/>
<rect x="46.1967" y="307.771" width="28.2787" height="6.14754" fill="#DAC0AF"/>
<rect x="44.9673" y="435.639" width="30.7377" height="8.60656" fill="#DAC0AF"/>
<rect x="41.2786" y="499.574" width="38.1148" height="9.83607" fill="#DAC0AF"/>
<mask id="mask4_125_3733" style="mask-type:alpha" maskUnits="userSpaceOnUse" x="96" y="299" width="36" height="31">
<path d="M113.82 299C130.132 302.557 131.904 317.925 130.751 325.164C130.751 325.164 120.623 329.263 113.82 329.263C107.017 329.263 96.8888 325.164 96.8888 325.164C95.7358 317.925 97.5078 302.557 113.82 299Z" fill="#E8CDC2"/>
</mask>
<g mask="url(#mask4_125_3733)">
<path d="M135.046 330.846H92.9988C91.5671 321.209 93.7674 300.75 114.022 296.015C134.277 300.75 136.478 321.209 135.046 330.846Z" fill="#DBB6A9"/>
<path d="M131.377 317.762C131.377 324.037 117.857 322.926 111.582 322.926C105.308 322.926 104.353 319.217 104.353 312.943C104.353 306.668 109.095 299.172 115.369 299.172C127.418 299.172 131.377 311.488 131.377 317.762Z" fill="#F5E7DE"/>
<path d="M116.491 315.367C112.068 314.656 113.276 307.936 114.901 305.329C117.818 300.648 122.773 305.062 124.716 308.361C128.024 313.978 120.752 316.052 116.491 315.367Z" fill="#FAF3ED"/>
</g>
<path d="M113.722 298.128C113.722 298.128 105.982 299.983 105.982 302.271H121.463C121.463 299.983 113.722 298.128 113.722 298.128Z" fill="#DAC0AF"/>
<path d="M113.722 289.407C113.722 289.407 115.357 288.821 115.357 288.098L112.087 288.098C112.087 288.821 113.722 289.407 113.722 289.407Z" fill="#DAC0AF"/>
<path d="M113.722 292.677C113.722 292.677 114.267 291.994 114.267 291.151L113.177 291.151C113.177 291.994 113.722 292.677 113.722 292.677Z" fill="#DAC0AF"/>
<path d="M113.722 292.023C113.722 292.023 113.177 292.511 113.177 293.113H114.267C114.267 292.511 113.722 292.023 113.722 292.023Z" fill="#DAC0AF"/>
<path d="M113.722 295.075C113.722 295.075 112.523 296.247 112.523 297.692H114.921C114.921 296.247 113.722 295.075 113.722 295.075Z" fill="#DAC0AF"/>
<circle cx="113.722" cy="294.53" r="1.63525" fill="#DAC0AF"/>
<circle cx="113.722" cy="290.388" r="1.19918" fill="#DAC0AF"/>
<circle cx="113.722" cy="297.583" r="1.19918" fill="#DAC0AF"/>
<path fill-rule="evenodd" clip-rule="evenodd" d="M96.6066 327.984C96.6066 326.327 97.9497 324.984 99.6066 324.984H126.803C128.46 324.984 129.803 326.327 129.803 327.984V341.656C129.803 343.313 128.46 344.656 126.803 344.656H99.6066C97.9497 344.656 96.6066 343.313 96.6066 341.656V327.984ZM121.197 330.902C121.197 330.349 121.645 329.902 122.197 329.902H125.115C125.667 329.902 126.115 330.349 126.115 330.902V338.738C126.115 339.29 125.667 339.738 125.115 339.738H122.197C121.645 339.738 121.197 339.29 121.197 338.738V330.902ZM114.82 329.902C114.268 329.902 113.82 330.349 113.82 330.902V338.738C113.82 339.29 114.268 339.738 114.82 339.738H117.738C118.29 339.738 118.738 339.29 118.738 338.738V330.902C118.738 330.349 118.29 329.902 117.738 329.902H114.82ZM106.443 330.902C106.443 330.349 106.891 329.902 107.443 329.902H110.361C110.913 329.902 111.361 330.349 111.361 330.902V338.738C111.361 339.29 110.913 339.738 110.361 339.738H107.443C106.891 339.738 106.443 339.29 106.443 338.738V330.902ZM100.066 329.902C99.5133 329.902 99.0656 330.349 99.0656 330.902V338.738C99.0656 339.29 99.5133 339.738 100.066 339.738H102.984C103.536 339.738 103.984 339.29 103.984 338.738V330.902C103.984 330.349 103.536 329.902 102.984 329.902H100.066Z" fill="#E7D9D1"/>
<rect x="96.6066" y="342.197" width="33.1967" height="3.68852" fill="#AB9484"/>
<rect x="96.6066" y="323.754" width="33.1967" height="3.68852" fill="#AB9484"/>
<path d="M101.525 345.653H123.656L124.885 391.519H100.295L101.525 345.653Z" fill="#F5EDE9"/>
<path d="M100.418 394.511H124.762L126.115 449.351H99.0656L100.418 394.511Z" fill="#F5EDE9"/>
<path d="M98.205 455.334H126.975L128.574 500.204H96.6066L98.205 455.334Z" fill="#F5EDE9"/>
<rect x="99.0656" y="390.522" width="28.2787" height="4.98551" fill="#DAC0AF"/>
<rect x="99.0656" y="344.656" width="28.2787" height="4.98551" fill="#DAC0AF"/>
<rect x="97.8361" y="448.354" width="30.7377" height="6.97971" fill="#DAC0AF"/>
<rect x="94.1476" y="500.204" width="38.1148" height="7.97681" fill="#DAC0AF"/>
<mask id="mask5_125_3733" style="mask-type:alpha" maskUnits="userSpaceOnUse" x="796" y="262" width="35" height="31">
<path d="M813.41 262.115C797.098 265.672 795.326 281.039 796.479 288.279C796.479 288.279 806.607 292.378 813.41 292.378C820.213 292.378 830.341 288.279 830.341 288.279C831.494 281.039 829.722 265.672 813.41 262.115Z" fill="#E8CDC2"/>
</mask>
<g mask="url(#mask5_125_3733)">
<path d="M792.184 293.961H834.231C835.662 284.324 833.462 263.865 813.207 259.129C792.952 263.865 790.752 284.324 792.184 293.961Z" fill="#DBB6A9"/>
<path d="M795.853 280.877C795.853 287.151 809.373 286.041 815.648 286.041C821.922 286.041 822.877 282.332 822.877 276.057C822.877 269.783 818.135 262.287 811.861 262.287C799.812 262.287 795.853 274.603 795.853 280.877Z" fill="#F5E7DE"/>
<path d="M810.739 278.482C815.162 277.771 813.954 271.051 812.329 268.444C809.412 263.763 804.457 268.177 802.514 271.476C799.206 277.092 806.478 279.167 810.739 278.482Z" fill="#FAF3ED"/>
</g>
<path d="M813.507 261.243C813.507 261.243 821.248 263.097 821.248 265.385H805.767C805.767 263.097 813.507 261.243 813.507 261.243Z" fill="#DAC0AF"/>
<path d="M813.508 252.521C813.508 252.521 811.872 251.936 811.872 251.213L815.143 251.213C815.143 251.936 813.508 252.521 813.508 252.521Z" fill="#DAC0AF"/>
<path d="M813.507 255.792C813.507 255.792 812.962 255.109 812.962 254.266L814.052 254.266C814.052 255.109 813.507 255.792 813.507 255.792Z" fill="#DAC0AF"/>
<path d="M813.507 255.138C813.507 255.138 814.052 255.626 814.052 256.228H812.962C812.962 255.626 813.507 255.138 813.507 255.138Z" fill="#DAC0AF"/>
<path d="M813.507 258.19C813.507 258.19 814.707 259.362 814.707 260.807H812.308C812.308 259.362 813.507 258.19 813.507 258.19Z" fill="#DAC0AF"/>
<circle cx="1.63525" cy="1.63525" r="1.63525" transform="matrix(-1 0 0 1 815.143 256.01)" fill="#DAC0AF"/>
<circle cx="1.19918" cy="1.19918" r="1.19918" transform="matrix(-1 0 0 1 814.707 252.303)" fill="#DAC0AF"/>
<circle cx="1.19918" cy="1.19918" r="1.19918" transform="matrix(-1 0 0 1 814.707 259.498)" fill="#DAC0AF"/>
<path fill-rule="evenodd" clip-rule="evenodd" d="M830.623 291.098C830.623 289.442 829.28 288.098 827.623 288.098H800.426C798.769 288.098 797.426 289.442 797.426 291.098V304.771C797.426 306.427 798.769 307.771 800.426 307.771H827.623C829.28 307.771 830.623 306.427 830.623 304.771V291.098ZM806.033 294.016C806.033 293.464 805.585 293.016 805.033 293.016H802.115C801.563 293.016 801.115 293.464 801.115 294.016V301.853C801.115 302.405 801.563 302.853 802.115 302.853H805.033C805.585 302.853 806.033 302.405 806.033 301.853V294.016ZM812.41 293.016C812.962 293.016 813.41 293.464 813.41 294.016V301.853C813.41 302.405 812.962 302.853 812.41 302.853H809.492C808.94 302.853 808.492 302.405 808.492 301.853V294.016C808.492 293.464 808.94 293.016 809.492 293.016H812.41ZM820.787 294.016C820.787 293.464 820.339 293.016 819.787 293.016H816.869C816.317 293.016 815.869 293.464 815.869 294.016V301.853C815.869 302.405 816.317 302.853 816.869 302.853H819.787C820.339 302.853 820.787 302.405 820.787 301.853V294.016ZM827.164 293.016C827.716 293.016 828.164 293.464 828.164 294.016V301.852C828.164 302.405 827.716 302.852 827.164 302.852H824.246C823.694 302.852 823.246 302.405 823.246 301.852V294.016C823.246 293.464 823.694 293.016 824.246 293.016H827.164Z" fill="#E7D9D1"/>
<rect width="33.1967" height="3.68852" transform="matrix(-1 0 0 1 830.623 305.312)" fill="#AB9484"/>
<rect width="33.1967" height="3.68852" transform="matrix(-1 0 0 1 830.623 286.869)" fill="#AB9484"/>
<path d="M825.705 309H803.574L802.344 365.557H826.934L825.705 309Z" fill="#F5EDE9"/>
<path d="M826.811 369.246H802.467L801.115 436.869H828.164L826.811 369.246Z" fill="#F5EDE9"/>
<path d="M829.025 444.246H800.254L798.656 499.574H830.623L829.025 444.246Z" fill="#F5EDE9"/>
<rect width="28.2787" height="6.14754" transform="matrix(-1 0 0 1 828.164 364.328)" fill="#DAC0AF"/>
<rect width="28.2787" height="6.14754" transform="matrix(-1 0 0 1 828.164 307.771)" fill="#DAC0AF"/>
<rect width="30.7377" height="8.60656" transform="matrix(-1 0 0 1 829.393 435.639)" fill="#DAC0AF"/>
<rect width="38.1148" height="9.83607" transform="matrix(-1 0 0 1 833.082 499.574)" fill="#DAC0AF"/>
<mask id="mask6_125_3733" style="mask-type:alpha" maskUnits="userSpaceOnUse" x="743" y="299" width="35" height="31">
<path d="M760.541 299C744.229 302.557 742.457 317.925 743.61 325.164C743.61 325.164 753.738 329.263 760.541 329.263C767.344 329.263 777.472 325.164 777.472 325.164C778.625 317.925 776.853 302.557 760.541 299Z" fill="#E8CDC2"/>
</mask>
<g mask="url(#mask6_125_3733)">
<path d="M739.315 330.846H781.362C782.794 321.209 780.593 300.75 760.338 296.015C740.083 300.75 737.883 321.209 739.315 330.846Z" fill="#DBB6A9"/>
<path d="M742.984 317.762C742.984 324.037 756.505 322.926 762.779 322.926C769.053 322.926 770.008 319.217 770.008 312.943C770.008 306.668 765.266 299.172 758.992 299.172C746.943 299.172 742.984 311.488 742.984 317.762Z" fill="#F5E7DE"/>
<path d="M757.871 315.367C762.294 314.656 761.085 307.936 759.461 305.329C756.543 300.648 751.588 305.062 749.645 308.361C746.337 313.978 753.609 316.052 757.871 315.367Z" fill="#FAF3ED"/>
</g>
<path d="M760.638 298.128C760.638 298.128 768.379 299.983 768.379 302.271H752.898C752.898 299.983 760.638 298.128 760.638 298.128Z" fill="#DAC0AF"/>
<path d="M760.639 289.407C760.639 289.407 759.004 288.821 759.004 288.098L762.274 288.098C762.274 288.821 760.639 289.407 760.639 289.407Z" fill="#DAC0AF"/>
<path d="M760.638 292.677C760.638 292.677 760.093 291.994 760.093 291.151L761.184 291.151C761.184 291.994 760.638 292.677 760.638 292.677Z" fill="#DAC0AF"/>
<path d="M760.638 292.023C760.638 292.023 761.184 292.511 761.184 293.113H760.093C760.093 292.511 760.638 292.023 760.638 292.023Z" fill="#DAC0AF"/>
<path d="M760.639 295.075C760.639 295.075 761.838 296.247 761.838 297.692H759.439C759.439 296.247 760.639 295.075 760.639 295.075Z" fill="#DAC0AF"/>
<circle cx="1.63525" cy="1.63525" r="1.63525" transform="matrix(-1 0 0 1 762.274 292.895)" fill="#DAC0AF"/>
<circle cx="1.19918" cy="1.19918" r="1.19918" transform="matrix(-1 0 0 1 761.838 289.189)" fill="#DAC0AF"/>
<circle cx="1.19918" cy="1.19918" r="1.19918" transform="matrix(-1 0 0 1 761.838 296.384)" fill="#DAC0AF"/>
<path fill-rule="evenodd" clip-rule="evenodd" d="M777.754 327.984C777.754 326.327 776.411 324.984 774.754 324.984H747.557C745.9 324.984 744.557 326.327 744.557 327.984V341.656C744.557 343.313 745.9 344.656 747.557 344.656H774.754C776.411 344.656 777.754 343.313 777.754 341.656V327.984ZM753.164 330.902C753.164 330.349 752.716 329.902 752.164 329.902H749.246C748.694 329.902 748.246 330.349 748.246 330.902V338.738C748.246 339.29 748.694 339.738 749.246 339.738H752.164C752.716 339.738 753.164 339.29 753.164 338.738V330.902ZM759.541 329.902C760.093 329.902 760.541 330.349 760.541 330.902V338.738C760.541 339.29 760.093 339.738 759.541 339.738H756.623C756.071 339.738 755.623 339.29 755.623 338.738V330.902C755.623 330.349 756.071 329.902 756.623 329.902H759.541ZM767.918 330.902C767.918 330.349 767.47 329.902 766.918 329.902H764C763.448 329.902 763 330.349 763 330.902V338.738C763 339.29 763.448 339.738 764 339.738H766.918C767.47 339.738 767.918 339.29 767.918 338.738V330.902ZM774.295 329.902C774.847 329.902 775.295 330.349 775.295 330.902V338.738C775.295 339.29 774.847 339.738 774.295 339.738H771.377C770.825 339.738 770.377 339.29 770.377 338.738V330.902C770.377 330.349 770.825 329.902 771.377 329.902H774.295Z" fill="#E7D9D1"/>
<rect width="33.1967" height="3.68852" transform="matrix(-1 0 0 1 777.754 342.197)" fill="#AB9484"/>
<rect width="33.1967" height="3.68852" transform="matrix(-1 0 0 1 777.754 323.754)" fill="#AB9484"/>
<path d="M772.836 345.653H750.705L749.475 391.519H774.066L772.836 345.653Z" fill="#F5EDE9"/>
<path d="M773.943 394.511H749.598L748.246 449.351H775.295L773.943 394.511Z" fill="#F5EDE9"/>
<path d="M776.156 455.334H747.385L745.787 500.204H777.754L776.156 455.334Z" fill="#F5EDE9"/>
<rect width="28.2787" height="4.98551" transform="matrix(-1 0 0 1 775.295 390.522)" fill="#DAC0AF"/>
<rect width="28.2787" height="4.98551" transform="matrix(-1 0 0 1 775.295 344.656)" fill="#DAC0AF"/>
<rect width="30.7377" height="6.97971" transform="matrix(-1 0 0 1 776.525 448.354)" fill="#DAC0AF"/>
<rect width="38.1148" height="7.97681" transform="matrix(-1 0 0 1 780.213 500.204)" fill="#DAC0AF"/>
<g filter="url(#filter5_d_125_3733)">
<rect x="160.541" y="206.951" width="8.60656" height="84.8361" fill="#F5E7DE"/>
<rect x="160.541" y="231.541" width="40.5738" height="60.2459" fill="#DAC0AF"/>
<rect x="180.213" y="247.525" width="9.83607" height="20.9016" fill="#AB9484"/>
<rect x="180.213" y="258.59" width="9.83607" height="20.9016" fill="#AB9484"/>
<path d="M199.886 225.393C199.886 225.393 206.033 219.889 206.033 213.098L193.738 213.098C193.738 219.889 199.886 225.393 199.886 225.393Z" fill="#DAC0AF"/>
<ellipse cx="199.885" cy="213.098" rx="6.14754" ry="4.91803" fill="#F5E7DE"/>
<rect x="196.197" y="220.475" width="7.37705" height="68.8525" fill="#DAC0AF"/>
<path d="M169.148 189.738C169.148 189.738 175.295 184.233 175.295 177.443L163 177.443C163 184.233 169.148 189.738 169.148 189.738Z" fill="#DAC0AF"/>
<ellipse cx="169.148" cy="177.443" rx="6.14754" ry="4.91803" fill="#F5E7DE"/>
<rect x="165.459" y="184.82" width="7.37705" height="97.1311" fill="#DAC0AF"/>
<path d="M160.541 219.246C160.541 219.246 166.689 213.741 166.689 206.951L154.394 206.951C154.394 213.741 160.541 219.246 160.541 219.246Z" fill="#DAC0AF"/>
<ellipse cx="160.541" cy="206.951" rx="6.14754" ry="4.91803" fill="#F5E7DE"/>
<rect x="156.853" y="214.328" width="7.37705" height="68.8525" fill="#DAC0AF"/>
<rect width="8.60656" height="84.8361" transform="matrix(-1 0 0 1 715.049 206.951)" fill="#F5E7DE"/>
<rect width="40.5738" height="60.2459" transform="matrix(-1 0 0 1 715.049 231.541)" fill="#DAC0AF"/>
<rect width="9.83607" height="20.9016" transform="matrix(-1 0 0 1 695.377 247.525)" fill="#AB9484"/>
<rect width="9.83607" height="20.9016" transform="matrix(-1 0 0 1 695.377 258.59)" fill="#AB9484"/>
<path d="M675.705 225.393C675.705 225.393 669.558 219.889 669.558 213.098L681.853 213.098C681.853 219.889 675.705 225.393 675.705 225.393Z" fill="#DAC0AF"/>
<ellipse cx="6.14754" cy="4.91803" rx="6.14754" ry="4.91803" transform="matrix(-1 0 0 1 681.853 208.18)" fill="#F5E7DE"/>
<rect width="7.37705" height="68.8525" transform="matrix(-1 0 0 1 679.394 220.475)" fill="#DAC0AF"/>
<path d="M706.443 189.738C706.443 189.738 700.295 184.233 700.295 177.443L712.59 177.443C712.59 184.233 706.443 189.738 706.443 189.738Z" fill="#DAC0AF"/>
<ellipse cx="6.14754" cy="4.91803" rx="6.14754" ry="4.91803" transform="matrix(-1 0 0 1 712.59 172.525)" fill="#F5E7DE"/>
<rect width="7.37705" height="97.1311" transform="matrix(-1 0 0 1 710.131 184.82)" fill="#DAC0AF"/>
<path d="M715.049 219.246C715.049 219.246 708.902 213.741 708.902 206.951L721.197 206.951C721.197 213.741 715.049 219.246 715.049 219.246Z" fill="#DAC0AF"/>
<ellipse cx="6.14754" cy="4.91803" rx="6.14754" ry="4.91803" transform="matrix(-1 0 0 1 721.197 202.033)" fill="#F5E7DE"/>
<rect width="7.37705" height="68.8525" transform="matrix(-1 0 0 1 718.738 214.328)" fill="#DAC0AF"/>
</g>
<g filter="url(#filter6_d_125_3733)">
<rect x="155.623" y="279.492" width="563.115" height="227.459" fill="#DAC0AF"/>
</g>
<g filter="url(#filter7_d_125_3733)">
<rect x="354.803" y="258.59" width="165.984" height="78.6885" fill="#DAC0AF"/>
</g>
<g filter="url(#filter8_d_125_3733)">
<path d="M437.795 65.5574C437.795 65.5574 394.147 76.0163 394.147 88.918H481.443C481.443 76.0163 437.795 65.5574 437.795 65.5574Z" fill="#DAC0AF"/>
<path d="M437.795 16.3771C437.795 16.3771 447.016 13.0743 447.016 9.00003L428.574 9.00003C428.574 13.0743 437.795 16.3771 437.795 16.3771Z" fill="#DAC0AF"/>
<path d="M437.795 34.8196C437.795 34.8196 440.869 30.9664 440.869 26.2131L434.721 26.2131C434.721 30.9664 437.795 34.8196 437.795 34.8196Z" fill="#DAC0AF"/>
<path d="M437.795 31.1312C437.795 31.1312 434.721 33.8835 434.721 37.2787H440.869C440.869 33.8835 437.795 31.1312 437.795 31.1312Z" fill="#DAC0AF"/>
<path d="M437.795 48.3442C437.795 48.3442 431.033 54.9499 431.033 63.0983H444.557C444.557 54.9499 437.795 48.3442 437.795 48.3442Z" fill="#DAC0AF"/>
<circle cx="437.795" cy="45.2705" r="9.22131" fill="#DAC0AF"/>
<circle cx="437.795" cy="21.9098" r="6.7623" fill="#DAC0AF"/>
<circle cx="437.795" cy="62.4836" r="6.7623" fill="#DAC0AF"/>
</g>
<g filter="url(#filter9_d_125_3733)">
<path d="M298.17 121.774C298.17 121.774 269.967 128.532 269.967 136.869H326.373C326.373 128.532 298.17 121.774 298.17 121.774Z" fill="#DAC0AF"/>
<path d="M298.17 89.9962C298.17 89.9962 304.129 87.8621 304.129 85.2295L292.212 85.2295C292.212 87.8621 298.17 89.9962 298.17 89.9962Z" fill="#DAC0AF"/>
<path d="M298.17 101.913C298.17 101.913 300.156 99.4232 300.156 96.3519L296.184 96.3519C296.184 99.4232 298.17 101.913 298.17 101.913Z" fill="#DAC0AF"/>
<path d="M298.17 99.5297C298.17 99.5297 296.184 101.308 296.184 103.502H300.156C300.156 101.308 298.17 99.5297 298.17 99.5297Z" fill="#DAC0AF"/>
<path d="M298.17 110.652C298.17 110.652 293.8 114.92 293.8 120.185H302.539C302.539 114.92 298.17 110.652 298.17 110.652Z" fill="#DAC0AF"/>
<circle cx="298.17" cy="108.666" r="5.95839" fill="#DAC0AF"/>
<circle cx="298.17" cy="93.5712" r="4.36948" fill="#DAC0AF"/>
<circle cx="298.17" cy="119.788" r="4.36948" fill="#DAC0AF"/>
</g>
<g filter="url(#filter10_d_125_3733)">
<path d="M577.268 121.774C577.268 121.774 549.065 128.532 549.065 136.869H605.472C605.472 128.532 577.268 121.774 577.268 121.774Z" fill="#DAC0AF"/>
<path d="M577.269 89.9962C577.269 89.9962 583.227 87.8621 583.227 85.2295L571.31 85.2295C571.31 87.8621 577.269 89.9962 577.269 89.9962Z" fill="#DAC0AF"/>
<path d="M577.269 101.913C577.269 101.913 579.255 99.4231 579.255 96.3518L575.282 96.3518C575.282 99.4231 577.269 101.913 577.269 101.913Z" fill="#DAC0AF"/>
<path d="M577.269 99.5296C577.269 99.5296 575.283 101.308 575.283 103.502H579.255C579.255 101.308 577.269 99.5296 577.269 99.5296Z" fill="#DAC0AF"/>
<path d="M577.268 110.652C577.268 110.652 572.899 114.92 572.899 120.185H581.638C581.638 114.92 577.268 110.652 577.268 110.652Z" fill="#DAC0AF"/>
<circle cx="577.269" cy="108.666" r="5.95839" fill="#DAC0AF"/>
<circle cx="577.268" cy="93.5712" r="4.36948" fill="#DAC0AF"/>
<circle cx="577.268" cy="119.788" r="4.36948" fill="#DAC0AF"/>
</g>
<rect x="229.394" y="225.393" width="122.951" height="7.37705" fill="#DAC0AF"/>
<rect x="522.016" y="225.393" width="122.951" height="7.37705" fill="#DAC0AF"/>
<g filter="url(#filter11_d_125_3733)">
<rect x="244.148" y="291.098" width="106.967" height="216.393" fill="#FAF3ED"/>
</g>
<g filter="url(#filter12_d_125_3733)">
<rect x="255.213" y="304.393" width="84.8361" height="204.098" fill="#E7D9D1"/>
</g>
<g filter="url(#filter13_d_125_3733)">
<rect x="267.508" y="313.918" width="60.2459" height="177.049" fill="#FAF3ED"/>
</g>
<path d="M274.885 332.088C274.885 332.088 285.069 317.607 297.631 317.607C310.193 317.607 320.377 332.088 320.377 332.088V382.771H274.885V332.088Z" fill="#DAC0AF"/>
<path d="M288.41 361.732C288.41 361.732 292.538 355.721 297.631 355.721C302.724 355.721 306.852 361.732 306.852 361.732V382.771H288.41V361.732Z" fill="#303030"/>
<rect x="272.426" y="380.311" width="50.4098" height="8.60656" fill="#AB9484"/>
<g filter="url(#filter14_d_125_3733)">
<rect x="287.18" y="380.311" width="20.9016" height="8.60656" fill="#303030"/>
</g>
<path d="M274.885 421.842C274.885 421.842 285.069 407.361 297.631 407.361C310.193 407.361 320.377 421.842 320.377 421.842V472.525H274.885V421.842Z" fill="#DAC0AF"/>
<path d="M288.41 451.486C288.41 451.486 292.538 445.475 297.631 445.475C302.724 445.475 306.852 451.486 306.852 451.486V472.525H288.41V451.486Z" fill="#303030"/>
<rect x="272.426" y="470.066" width="50.4098" height="8.60656" fill="#AB9484"/>
<g filter="url(#filter15_d_125_3733)">
<rect x="287.18" y="470.066" width="20.9016" height="8.60656" fill="#303030"/>
</g>
<g filter="url(#filter16_d_125_3733)">
<rect x="524.475" y="291.098" width="106.967" height="216.393" fill="#FAF3ED"/>
</g>
<g filter="url(#filter17_d_125_3733)">
<rect x="535.541" y="304.393" width="84.8361" height="204.098" fill="#E7D9D1"/>
</g>
<g filter="url(#filter18_d_125_3733)">
<rect x="547.836" y="313.918" width="60.2459" height="177.049" fill="#FAF3ED"/>
</g>
<path d="M555.213 332.088C555.213 332.088 565.397 317.607 577.959 317.607C590.521 317.607 600.705 332.088 600.705 332.088V382.771H555.213V332.088Z" fill="#DAC0AF"/>
<path d="M568.738 361.732C568.738 361.732 572.866 355.721 577.959 355.721C583.052 355.721 587.18 361.732 587.18 361.732V382.771H568.738V361.732Z" fill="#303030"/>
<rect x="552.754" y="380.311" width="50.4098" height="8.60656" fill="#AB9484"/>
<g filter="url(#filter19_d_125_3733)">
<rect x="567.508" y="380.311" width="20.9016" height="8.60656" fill="#303030"/>
</g>
<path d="M555.213 421.842C555.213 421.842 565.397 407.361 577.959 407.361C590.521 407.361 600.705 421.842 600.705 421.842V472.525H555.213V421.842Z" fill="#DAC0AF"/>
<path d="M568.738 451.486C568.738 451.486 572.866 445.475 577.959 445.475C583.052 445.475 587.18 451.486 587.18 451.486V472.525H568.738V451.486Z" fill="#303030"/>
<rect x="552.754" y="470.066" width="50.4098" height="8.60656" fill="#AB9484"/>
<g filter="url(#filter20_d_125_3733)">
<rect x="567.508" y="470.066" width="20.9016" height="8.60656" fill="#303030"/>
</g>
<g filter="url(#filter21_d_125_3733)">
<rect x="358.492" y="271.426" width="158.607" height="236.066" fill="#FAF3ED"/>
</g>
<g filter="url(#filter22_d_125_3733)">
<rect x="369.557" y="285.951" width="136.475" height="222.541" fill="#E7D9D1"/>
</g>
<g filter="url(#filter23_d_125_3733)">
<rect x="383.082" y="297.246" width="109.426" height="196.721" fill="#FAF3ED"/>
</g>
<g filter="url(#filter24_d_125_3733)">
<rect x="164.23" y="291.098" width="72.541" height="216.393" fill="#FAF3ED"/>
</g>
<g filter="url(#filter25_d_125_3733)">
<rect x="167.918" y="304.393" width="65.1639" height="204.098" fill="#E7D9D1"/>
</g>
<g filter="url(#filter26_d_125_3733)">
<rect x="180.213" y="313.918" width="40.5738" height="177.049" fill="#FAF3ED"/>
</g>
<path d="M185.131 332.088C185.131 332.088 191.737 317.607 199.885 317.607C208.034 317.607 214.639 332.088 214.639 332.088V382.771H185.131V332.088Z" fill="#DAC0AF"/>
<rect x="183.902" y="380.311" width="31.9672" height="8.60656" fill="#AB9484"/>
<path d="M185.131 421.842C185.131 421.842 191.737 407.361 199.885 407.361C208.034 407.361 214.639 421.842 214.639 421.842V472.525H185.131V421.842Z" fill="#DAC0AF"/>
<rect x="183.902" y="470.066" width="31.9672" height="8.60656" fill="#AB9484"/>
<g filter="url(#filter27_d_125_3733)">
<rect x="638.82" y="291.098" width="72.541" height="216.393" fill="#FAF3ED"/>
</g>
<g filter="url(#filter28_d_125_3733)">
<rect x="642.508" y="304.393" width="65.1639" height="204.098" fill="#E7D9D1"/>
</g>
<g filter="url(#filter29_d_125_3733)">
<rect x="654.803" y="313.918" width="40.5738" height="177.049" fill="#FAF3ED"/>
</g>
<path d="M659.721 332.088C659.721 332.088 666.327 317.607 674.476 317.607C682.624 317.607 689.23 332.088 689.23 332.088V382.771H659.721V332.088Z" fill="#DAC0AF"/>
<rect x="658.492" y="380.311" width="31.9672" height="8.60656" fill="#AB9484"/>
<path d="M659.721 421.842C659.721 421.842 666.327 407.361 674.476 407.361C682.624 407.361 689.23 421.842 689.23 421.842V472.525H659.721V421.842Z" fill="#DAC0AF"/>
<rect x="658.492" y="470.066" width="31.9672" height="8.60656" fill="#AB9484"/>
<g filter="url(#filter30_d_125_3733)">
<path d="M24.0656 506.951H851.525V527.852H24.0656V506.951Z" fill="#E7D9D1"/>
</g>
<g filter="url(#filter31_d_125_3733)">
<path d="M13 518.016H862.59V534H13V518.016Z" fill="#DAC0AF"/>
</g>
<rect x="517.098" y="225.393" width="6.14754" height="17.2131" fill="#DAC0AF"/>
<rect x="351.115" y="225.393" width="6.14754" height="17.2131" fill="#DAC0AF"/>
<rect x="362.18" y="225.393" width="6.14754" height="17.2131" fill="#DAC0AF"/>
<rect x="373.246" y="225.393" width="6.14754" height="17.2131" fill="#DAC0AF"/>
<rect x="384.312" y="225.393" width="6.14754" height="17.2131" fill="#DAC0AF"/>
<rect x="395.377" y="225.393" width="6.14754" height="17.2131" fill="#DAC0AF"/>
<rect x="406.443" y="225.393" width="6.14754" height="17.2131" fill="#DAC0AF"/>
<rect x="417.508" y="225.393" width="6.14754" height="17.2131" fill="#DAC0AF"/>
<rect x="428.574" y="225.393" width="6.14754" height="17.2131" fill="#DAC0AF"/>
<rect x="439.639" y="225.393" width="6.14754" height="17.2131" fill="#DAC0AF"/>
<rect x="450.705" y="225.393" width="6.14754" height="17.2131" fill="#DAC0AF"/>
<rect x="461.771" y="225.393" width="6.14754" height="17.2131" fill="#DAC0AF"/>
<rect x="472.836" y="225.393" width="6.14754" height="17.2131" fill="#DAC0AF"/>
<rect x="483.902" y="225.393" width="6.14754" height="17.2131" fill="#DAC0AF"/>
<rect x="494.967" y="225.393" width="6.14754" height="17.2131" fill="#DAC0AF"/>
<rect x="506.033" y="225.393" width="6.14754" height="17.2131" fill="#DAC0AF"/>
<rect x="386.771" y="369.246" width="100.82" height="113.115" fill="#DAC0AF"/>
<path d="M386.771 348.618C386.771 332.975 407.672 318.836 437.181 311.459C465.459 318.221 487.59 336.049 487.59 348.618C487.59 391.377 487.59 372.32 487.59 372.32H386.771C386.771 372.32 386.771 397.118 386.771 348.618Z" fill="#AB9484"/>
<rect x="386.771" y="477.443" width="102.049" height="11.0656" fill="#AB9484"/>
<path d="M421.197 346.705C421.197 346.705 428.353 336.049 437.18 336.049C446.008 336.049 453.164 346.705 453.164 346.705V384H421.197V346.705Z" fill="#303030"/>
<path d="M421.197 445.066C421.197 445.066 428.353 434.41 437.18 434.41C446.008 434.41 453.164 445.066 453.164 445.066V482.361H421.197V445.066Z" fill="#303030"/>
</g>
<defs>
<filter id="filter0_d_125_3733" x="0.2" y="0.2" width="875.19" height="550.6" filterUnits="userSpaceOnUse" color-interpolation-filters="sRGB">
<feFlood flood-opacity="0" result="BackgroundImageFix"/>
<feColorMatrix in="SourceAlpha" type="matrix" values="0 0 0 0 0 0 0 0 0 0 0 0 0 0 0 0 0 0 127 0" result="hardAlpha"/>
<feOffset dy="4"/>
<feGaussianBlur stdDeviation="6.4"/>
<feComposite in2="hardAlpha" operator="out"/>
<feColorMatrix type="matrix" values="0 0 0 0 0 0 0 0 0 0 0 0 0 0 0 0 0 0 0.4 0"/>
<feBlend mode="normal" in2="BackgroundImageFix" result="effect1_dropShadow_125_3733"/>
<feBlend mode="normal" in="SourceGraphic" in2="effect1_dropShadow_125_3733" result="shape"/>
</filter>
<filter id="filter1_d_125_3733" x="227.97" y="117.003" width="140.551" height="111.043" filterUnits="userSpaceOnUse" color-interpolation-filters="sRGB">
<feFlood flood-opacity="0" result="BackgroundImageFix"/>
<feColorMatrix in="SourceAlpha" type="matrix" values="0 0 0 0 0 0 0 0 0 0 0 0 0 0 0 0 0 0 127 0" result="hardAlpha"/>
<feOffset/>
<feGaussianBlur stdDeviation="4.4"/>
<feComposite in2="hardAlpha" operator="out"/>
<feColorMatrix type="matrix" values="0 0 0 0 0 0 0 0 0 0 0 0 0 0 0 0 0 0 0.5 0"/>
<feBlend mode="normal" in2="BackgroundImageFix" result="effect1_dropShadow_125_3733"/>
<feBlend mode="normal" in="SourceGraphic" in2="effect1_dropShadow_125_3733" result="shape"/>
</filter>
<filter id="filter2_d_125_3733" x="507.069" y="117.003" width="140.551" height="111.043" filterUnits="userSpaceOnUse" color-interpolation-filters="sRGB">
<feFlood flood-opacity="0" result="BackgroundImageFix"/>
<feColorMatrix in="SourceAlpha" type="matrix" values="0 0 0 0 0 0 0 0 0 0 0 0 0 0 0 0 0 0 127 0" result="hardAlpha"/>
<feOffset/>
<feGaussianBlur stdDeviation="4.4"/>
<feComposite in2="hardAlpha" operator="out"/>
<feColorMatrix type="matrix" values="0 0 0 0 0 0 0 0 0 0 0 0 0 0 0 0 0 0 0.5 0"/>
<feBlend mode="normal" in2="BackgroundImageFix" result="effect1_dropShadow_125_3733"/>
<feBlend mode="normal" in="SourceGraphic" in2="effect1_dropShadow_125_3733" result="shape"/>
</filter>
<filter id="filter3_d_125_3733" x="332.479" y="62.9049" width="211.733" height="165.141" filterUnits="userSpaceOnUse" color-interpolation-filters="sRGB">
<feFlood flood-opacity="0" result="BackgroundImageFix"/>
<feColorMatrix in="SourceAlpha" type="matrix" values="0 0 0 0 0 0 0 0 0 0 0 0 0 0 0 0 0 0 127 0" result="hardAlpha"/>
<feOffset/>
<feGaussianBlur stdDeviation="4.4"/>
<feComposite in2="hardAlpha" operator="out"/>
<feColorMatrix type="matrix" values="0 0 0 0 0 0 0 0 0 0 0 0 0 0 0 0 0 0 0.5 0"/>
<feBlend mode="normal" in2="BackgroundImageFix" result="effect1_dropShadow_125_3733"/>
<feBlend mode="normal" in="SourceGraphic" in2="effect1_dropShadow_125_3733" result="shape"/>
</filter>
<filter id="filter4_d_125_3733" x="231.659" y="209.216" width="411.043" height="91.3705" filterUnits="userSpaceOnUse" color-interpolation-filters="sRGB">
<feFlood flood-opacity="0" result="BackgroundImageFix"/>
<feColorMatrix in="SourceAlpha" type="matrix" values="0 0 0 0 0 0 0 0 0 0 0 0 0 0 0 0 0 0 127 0" result="hardAlpha"/>
<feOffset/>
<feGaussianBlur stdDeviation="4.4"/>
<feComposite in2="hardAlpha" operator="out"/>
<feColorMatrix type="matrix" values="0 0 0 0 0 0 0 0 0 0 0 0 0 0 0 0 0 0 0.5 0"/>
<feBlend mode="normal" in2="BackgroundImageFix" result="effect1_dropShadow_125_3733"/>
<feBlend mode="normal" in="SourceGraphic" in2="effect1_dropShadow_125_3733" result="shape"/>
</filter>
<filter id="filter5_d_125_3733" x="146.894" y="169.025" width="581.803" height="134.262" filterUnits="userSpaceOnUse" color-interpolation-filters="sRGB">
<feFlood flood-opacity="0" result="BackgroundImageFix"/>
<feColorMatrix in="SourceAlpha" type="matrix" values="0 0 0 0 0 0 0 0 0 0 0 0 0 0 0 0 0 0 127 0" result="hardAlpha"/>
<feOffset dy="4"/>
<feGaussianBlur stdDeviation="3.75"/>
<feComposite in2="hardAlpha" operator="out"/>
<feColorMatrix type="matrix" values="0 0 0 0 0 0 0 0 0 0 0 0 0 0 0 0 0 0 0.5 0"/>
<feBlend mode="normal" in2="BackgroundImageFix" result="effect1_dropShadow_125_3733"/>
<feBlend mode="normal" in="SourceGraphic" in2="effect1_dropShadow_125_3733" result="shape"/>
</filter>
<filter id="filter6_d_125_3733" x="146.823" y="270.692" width="580.715" height="245.059" filterUnits="userSpaceOnUse" color-interpolation-filters="sRGB">
<feFlood flood-opacity="0" result="BackgroundImageFix"/>
<feColorMatrix in="SourceAlpha" type="matrix" values="0 0 0 0 0 0 0 0 0 0 0 0 0 0 0 0 0 0 127 0" result="hardAlpha"/>
<feOffset/>
<feGaussianBlur stdDeviation="4.4"/>
<feComposite in2="hardAlpha" operator="out"/>
<feColorMatrix type="matrix" values="0 0 0 0 0 0 0 0 0 0 0 0 0 0 0 0 0 0 0.5 0"/>
<feBlend mode="normal" in2="BackgroundImageFix" result="effect1_dropShadow_125_3733"/>
<feBlend mode="normal" in="SourceGraphic" in2="effect1_dropShadow_125_3733" result="shape"/>
</filter>
<filter id="filter7_d_125_3733" x="346.003" y="249.79" width="183.584" height="96.2885" filterUnits="userSpaceOnUse" color-interpolation-filters="sRGB">
<feFlood flood-opacity="0" result="BackgroundImageFix"/>
<feColorMatrix in="SourceAlpha" type="matrix" values="0 0 0 0 0 0 0 0 0 0 0 0 0 0 0 0 0 0 127 0" result="hardAlpha"/>
<feOffset/>
<feGaussianBlur stdDeviation="4.4"/>
<feComposite in2="hardAlpha" operator="out"/>
<feColorMatrix type="matrix" values="0 0 0 0 0 0 0 0 0 0 0 0 0 0 0 0 0 0 0.5 0"/>
<feBlend mode="normal" in2="BackgroundImageFix" result="effect1_dropShadow_125_3733"/>
<feBlend mode="normal" in="SourceGraphic" in2="effect1_dropShadow_125_3733" result="shape"/>
</filter>
<filter id="filter8_d_125_3733" x="385.347" y="0.2" width="104.895" height="97.518" filterUnits="userSpaceOnUse" color-interpolation-filters="sRGB">
<feFlood flood-opacity="0" result="BackgroundImageFix"/>
<feColorMatrix in="SourceAlpha" type="matrix" values="0 0 0 0 0 0 0 0 0 0 0 0 0 0 0 0 0 0 127 0" result="hardAlpha"/>
<feOffset/>
<feGaussianBlur stdDeviation="4.4"/>
<feComposite in2="hardAlpha" operator="out"/>
<feColorMatrix type="matrix" values="0 0 0 0 0 0 0 0 0 0 0 0 0 0 0 0 0 0 0.5 0"/>
<feBlend mode="normal" in2="BackgroundImageFix" result="effect1_dropShadow_125_3733"/>
<feBlend mode="normal" in="SourceGraphic" in2="effect1_dropShadow_125_3733" result="shape"/>
</filter>
<filter id="filter9_d_125_3733" x="261.167" y="76.4295" width="74.0061" height="69.2394" filterUnits="userSpaceOnUse" color-interpolation-filters="sRGB">
<feFlood flood-opacity="0" result="BackgroundImageFix"/>
<feColorMatrix in="SourceAlpha" type="matrix" values="0 0 0 0 0 0 0 0 0 0 0 0 0 0 0 0 0 0 127 0" result="hardAlpha"/>
<feOffset/>
<feGaussianBlur stdDeviation="4.4"/>
<feComposite in2="hardAlpha" operator="out"/>
<feColorMatrix type="matrix" values="0 0 0 0 0 0 0 0 0 0 0 0 0 0 0 0 0 0 0.5 0"/>
<feBlend mode="normal" in2="BackgroundImageFix" result="effect1_dropShadow_125_3733"/>
<feBlend mode="normal" in="SourceGraphic" in2="effect1_dropShadow_125_3733" result="shape"/>
</filter>
<filter id="filter10_d_125_3733" x="540.265" y="76.4295" width="74.0061" height="69.2393" filterUnits="userSpaceOnUse" color-interpolation-filters="sRGB">
<feFlood flood-opacity="0" result="BackgroundImageFix"/>
<feColorMatrix in="SourceAlpha" type="matrix" values="0 0 0 0 0 0 0 0 0 0 0 0 0 0 0 0 0 0 127 0" result="hardAlpha"/>
<feOffset/>
<feGaussianBlur stdDeviation="4.4"/>
<feComposite in2="hardAlpha" operator="out"/>
<feColorMatrix type="matrix" values="0 0 0 0 0 0 0 0 0 0 0 0 0 0 0 0 0 0 0.5 0"/>
<feBlend mode="normal" in2="BackgroundImageFix" result="effect1_dropShadow_125_3733"/>
<feBlend mode="normal" in="SourceGraphic" in2="effect1_dropShadow_125_3733" result="shape"/>
</filter>
<filter id="filter11_d_125_3733" x="235.348" y="282.298" width="124.567" height="233.993" filterUnits="userSpaceOnUse" color-interpolation-filters="sRGB">
<feFlood flood-opacity="0" result="BackgroundImageFix"/>
<feColorMatrix in="SourceAlpha" type="matrix" values="0 0 0 0 0 0 0 0 0 0 0 0 0 0 0 0 0 0 127 0" result="hardAlpha"/>
<feOffset/>
<feGaussianBlur stdDeviation="4.4"/>
<feComposite in2="hardAlpha" operator="out"/>
<feColorMatrix type="matrix" values="0 0 0 0 0 0 0 0 0 0 0 0 0 0 0 0 0 0 0.5 0"/>
<feBlend mode="normal" in2="BackgroundImageFix" result="effect1_dropShadow_125_3733"/>
<feBlend mode="normal" in="SourceGraphic" in2="effect1_dropShadow_125_3733" result="shape"/>
</filter>
<filter id="filter12_d_125_3733" x="246.413" y="295.593" width="102.436" height="221.698" filterUnits="userSpaceOnUse" color-interpolation-filters="sRGB">
<feFlood flood-opacity="0" result="BackgroundImageFix"/>
<feColorMatrix in="SourceAlpha" type="matrix" values="0 0 0 0 0 0 0 0 0 0 0 0 0 0 0 0 0 0 127 0" result="hardAlpha"/>
<feOffset/>
<feGaussianBlur stdDeviation="4.4"/>
<feComposite in2="hardAlpha" operator="out"/>
<feColorMatrix type="matrix" values="0 0 0 0 0 0 0 0 0 0 0 0 0 0 0 0 0 0 0.5 0"/>
<feBlend mode="normal" in2="BackgroundImageFix" result="effect1_dropShadow_125_3733"/>
<feBlend mode="normal" in="SourceGraphic" in2="effect1_dropShadow_125_3733" result="shape"/>
</filter>
<filter id="filter13_d_125_3733" x="258.708" y="305.118" width="77.8459" height="194.649" filterUnits="userSpaceOnUse" color-interpolation-filters="sRGB">
<feFlood flood-opacity="0" result="BackgroundImageFix"/>
<feColorMatrix in="SourceAlpha" type="matrix" values="0 0 0 0 0 0 0 0 0 0 0 0 0 0 0 0 0 0 127 0" result="hardAlpha"/>
<feOffset/>
<feGaussianBlur stdDeviation="4.4"/>
<feComposite in2="hardAlpha" operator="out"/>
<feColorMatrix type="matrix" values="0 0 0 0 0 0 0 0 0 0 0 0 0 0 0 0 0 0 0.5 0"/>
<feBlend mode="normal" in2="BackgroundImageFix" result="effect1_dropShadow_125_3733"/>
<feBlend mode="normal" in="SourceGraphic" in2="effect1_dropShadow_125_3733" result="shape"/>
</filter>
<filter id="filter14_d_125_3733" x="278.38" y="371.511" width="38.5016" height="26.2066" filterUnits="userSpaceOnUse" color-interpolation-filters="sRGB">
<feFlood flood-opacity="0" result="BackgroundImageFix"/>
<feColorMatrix in="SourceAlpha" type="matrix" values="0 0 0 0 0 0 0 0 0 0 0 0 0 0 0 0 0 0 127 0" result="hardAlpha"/>
<feOffset/>
<feGaussianBlur stdDeviation="4.4"/>
<feComposite in2="hardAlpha" operator="out"/>
<feColorMatrix type="matrix" values="0 0 0 0 0 0 0 0 0 0 0 0 0 0 0 0 0 0 0.5 0"/>
<feBlend mode="normal" in2="BackgroundImageFix" result="effect1_dropShadow_125_3733"/>
<feBlend mode="normal" in="SourceGraphic" in2="effect1_dropShadow_125_3733" result="shape"/>
</filter>
<filter id="filter15_d_125_3733" x="278.38" y="461.266" width="38.5016" height="26.2066" filterUnits="userSpaceOnUse" color-interpolation-filters="sRGB">
<feFlood flood-opacity="0" result="BackgroundImageFix"/>
<feColorMatrix in="SourceAlpha" type="matrix" values="0 0 0 0 0 0 0 0 0 0 0 0 0 0 0 0 0 0 127 0" result="hardAlpha"/>
<feOffset/>
<feGaussianBlur stdDeviation="4.4"/>
<feComposite in2="hardAlpha" operator="out"/>
<feColorMatrix type="matrix" values="0 0 0 0 0 0 0 0 0 0 0 0 0 0 0 0 0 0 0.5 0"/>
<feBlend mode="normal" in2="BackgroundImageFix" result="effect1_dropShadow_125_3733"/>
<feBlend mode="normal" in="SourceGraphic" in2="effect1_dropShadow_125_3733" result="shape"/>
</filter>
<filter id="filter16_d_125_3733" x="515.675" y="282.298" width="124.567" height="233.993" filterUnits="userSpaceOnUse" color-interpolation-filters="sRGB">
<feFlood flood-opacity="0" result="BackgroundImageFix"/>
<feColorMatrix in="SourceAlpha" type="matrix" values="0 0 0 0 0 0 0 0 0 0 0 0 0 0 0 0 0 0 127 0" result="hardAlpha"/>
<feOffset/>
<feGaussianBlur stdDeviation="4.4"/>
<feComposite in2="hardAlpha" operator="out"/>
<feColorMatrix type="matrix" values="0 0 0 0 0 0 0 0 0 0 0 0 0 0 0 0 0 0 0.5 0"/>
<feBlend mode="normal" in2="BackgroundImageFix" result="effect1_dropShadow_125_3733"/>
<feBlend mode="normal" in="SourceGraphic" in2="effect1_dropShadow_125_3733" result="shape"/>
</filter>
<filter id="filter17_d_125_3733" x="526.741" y="295.593" width="102.436" height="221.698" filterUnits="userSpaceOnUse" color-interpolation-filters="sRGB">
<feFlood flood-opacity="0" result="BackgroundImageFix"/>
<feColorMatrix in="SourceAlpha" type="matrix" values="0 0 0 0 0 0 0 0 0 0 0 0 0 0 0 0 0 0 127 0" result="hardAlpha"/>
<feOffset/>
<feGaussianBlur stdDeviation="4.4"/>
<feComposite in2="hardAlpha" operator="out"/>
<feColorMatrix type="matrix" values="0 0 0 0 0 0 0 0 0 0 0 0 0 0 0 0 0 0 0.5 0"/>
<feBlend mode="normal" in2="BackgroundImageFix" result="effect1_dropShadow_125_3733"/>
<feBlend mode="normal" in="SourceGraphic" in2="effect1_dropShadow_125_3733" result="shape"/>
</filter>
<filter id="filter18_d_125_3733" x="539.036" y="305.118" width="77.8459" height="194.649" filterUnits="userSpaceOnUse" color-interpolation-filters="sRGB">
<feFlood flood-opacity="0" result="BackgroundImageFix"/>
<feColorMatrix in="SourceAlpha" type="matrix" values="0 0 0 0 0 0 0 0 0 0 0 0 0 0 0 0 0 0 127 0" result="hardAlpha"/>
<feOffset/>
<feGaussianBlur stdDeviation="4.4"/>
<feComposite in2="hardAlpha" operator="out"/>
<feColorMatrix type="matrix" values="0 0 0 0 0 0 0 0 0 0 0 0 0 0 0 0 0 0 0.5 0"/>
<feBlend mode="normal" in2="BackgroundImageFix" result="effect1_dropShadow_125_3733"/>
<feBlend mode="normal" in="SourceGraphic" in2="effect1_dropShadow_125_3733" result="shape"/>
</filter>
<filter id="filter19_d_125_3733" x="558.708" y="371.511" width="38.5016" height="26.2066" filterUnits="userSpaceOnUse" color-interpolation-filters="sRGB">
<feFlood flood-opacity="0" result="BackgroundImageFix"/>
<feColorMatrix in="SourceAlpha" type="matrix" values="0 0 0 0 0 0 0 0 0 0 0 0 0 0 0 0 0 0 127 0" result="hardAlpha"/>
<feOffset/>
<feGaussianBlur stdDeviation="4.4"/>
<feComposite in2="hardAlpha" operator="out"/>
<feColorMatrix type="matrix" values="0 0 0 0 0 0 0 0 0 0 0 0 0 0 0 0 0 0 0.5 0"/>
<feBlend mode="normal" in2="BackgroundImageFix" result="effect1_dropShadow_125_3733"/>
<feBlend mode="normal" in="SourceGraphic" in2="effect1_dropShadow_125_3733" result="shape"/>
</filter>
<filter id="filter20_d_125_3733" x="558.708" y="461.266" width="38.5016" height="26.2066" filterUnits="userSpaceOnUse" color-interpolation-filters="sRGB">
<feFlood flood-opacity="0" result="BackgroundImageFix"/>
<feColorMatrix in="SourceAlpha" type="matrix" values="0 0 0 0 0 0 0 0 0 0 0 0 0 0 0 0 0 0 127 0" result="hardAlpha"/>
<feOffset/>
<feGaussianBlur stdDeviation="4.4"/>
<feComposite in2="hardAlpha" operator="out"/>
<feColorMatrix type="matrix" values="0 0 0 0 0 0 0 0 0 0 0 0 0 0 0 0 0 0 0.5 0"/>
<feBlend mode="normal" in2="BackgroundImageFix" result="effect1_dropShadow_125_3733"/>
<feBlend mode="normal" in="SourceGraphic" in2="effect1_dropShadow_125_3733" result="shape"/>
</filter>
<filter id="filter21_d_125_3733" x="349.692" y="262.626" width="176.207" height="253.666" filterUnits="userSpaceOnUse" color-interpolation-filters="sRGB">
<feFlood flood-opacity="0" result="BackgroundImageFix"/>
<feColorMatrix in="SourceAlpha" type="matrix" values="0 0 0 0 0 0 0 0 0 0 0 0 0 0 0 0 0 0 127 0" result="hardAlpha"/>
<feOffset/>
<feGaussianBlur stdDeviation="4.4"/>
<feComposite in2="hardAlpha" operator="out"/>
<feColorMatrix type="matrix" values="0 0 0 0 0 0 0 0 0 0 0 0 0 0 0 0 0 0 0.5 0"/>
<feBlend mode="normal" in2="BackgroundImageFix" result="effect1_dropShadow_125_3733"/>
<feBlend mode="normal" in="SourceGraphic" in2="effect1_dropShadow_125_3733" result="shape"/>
</filter>
<filter id="filter22_d_125_3733" x="360.757" y="277.151" width="154.075" height="240.141" filterUnits="userSpaceOnUse" color-interpolation-filters="sRGB">
<feFlood flood-opacity="0" result="BackgroundImageFix"/>
<feColorMatrix in="SourceAlpha" type="matrix" values="0 0 0 0 0 0 0 0 0 0 0 0 0 0 0 0 0 0 127 0" result="hardAlpha"/>
<feOffset/>
<feGaussianBlur stdDeviation="4.4"/>
<feComposite in2="hardAlpha" operator="out"/>
<feColorMatrix type="matrix" values="0 0 0 0 0 0 0 0 0 0 0 0 0 0 0 0 0 0 0.5 0"/>
<feBlend mode="normal" in2="BackgroundImageFix" result="effect1_dropShadow_125_3733"/>
<feBlend mode="normal" in="SourceGraphic" in2="effect1_dropShadow_125_3733" result="shape"/>
</filter>
<filter id="filter23_d_125_3733" x="374.282" y="288.446" width="127.026" height="214.321" filterUnits="userSpaceOnUse" color-interpolation-filters="sRGB">
<feFlood flood-opacity="0" result="BackgroundImageFix"/>
<feColorMatrix in="SourceAlpha" type="matrix" values="0 0 0 0 0 0 0 0 0 0 0 0 0 0 0 0 0 0 127 0" result="hardAlpha"/>
<feOffset/>
<feGaussianBlur stdDeviation="4.4"/>
<feComposite in2="hardAlpha" operator="out"/>
<feColorMatrix type="matrix" values="0 0 0 0 0 0 0 0 0 0 0 0 0 0 0 0 0 0 0.5 0"/>
<feBlend mode="normal" in2="BackgroundImageFix" result="effect1_dropShadow_125_3733"/>
<feBlend mode="normal" in="SourceGraphic" in2="effect1_dropShadow_125_3733" result="shape"/>
</filter>
<filter id="filter24_d_125_3733" x="155.43" y="282.298" width="90.141" height="233.993" filterUnits="userSpaceOnUse" color-interpolation-filters="sRGB">
<feFlood flood-opacity="0" result="BackgroundImageFix"/>
<feColorMatrix in="SourceAlpha" type="matrix" values="0 0 0 0 0 0 0 0 0 0 0 0 0 0 0 0 0 0 127 0" result="hardAlpha"/>
<feOffset/>
<feGaussianBlur stdDeviation="4.4"/>
<feComposite in2="hardAlpha" operator="out"/>
<feColorMatrix type="matrix" values="0 0 0 0 0 0 0 0 0 0 0 0 0 0 0 0 0 0 0.5 0"/>
<feBlend mode="normal" in2="BackgroundImageFix" result="effect1_dropShadow_125_3733"/>
<feBlend mode="normal" in="SourceGraphic" in2="effect1_dropShadow_125_3733" result="shape"/>
</filter>
<filter id="filter25_d_125_3733" x="159.118" y="295.593" width="82.7639" height="221.698" filterUnits="userSpaceOnUse" color-interpolation-filters="sRGB">
<feFlood flood-opacity="0" result="BackgroundImageFix"/>
<feColorMatrix in="SourceAlpha" type="matrix" values="0 0 0 0 0 0 0 0 0 0 0 0 0 0 0 0 0 0 127 0" result="hardAlpha"/>
<feOffset/>
<feGaussianBlur stdDeviation="4.4"/>
<feComposite in2="hardAlpha" operator="out"/>
<feColorMatrix type="matrix" values="0 0 0 0 0 0 0 0 0 0 0 0 0 0 0 0 0 0 0.5 0"/>
<feBlend mode="normal" in2="BackgroundImageFix" result="effect1_dropShadow_125_3733"/>
<feBlend mode="normal" in="SourceGraphic" in2="effect1_dropShadow_125_3733" result="shape"/>
</filter>
<filter id="filter26_d_125_3733" x="171.413" y="305.118" width="58.1738" height="194.649" filterUnits="userSpaceOnUse" color-interpolation-filters="sRGB">
<feFlood flood-opacity="0" result="BackgroundImageFix"/>
<feColorMatrix in="SourceAlpha" type="matrix" values="0 0 0 0 0 0 0 0 0 0 0 0 0 0 0 0 0 0 127 0" result="hardAlpha"/>
<feOffset/>
<feGaussianBlur stdDeviation="4.4"/>
<feComposite in2="hardAlpha" operator="out"/>
<feColorMatrix type="matrix" values="0 0 0 0 0 0 0 0 0 0 0 0 0 0 0 0 0 0 0.5 0"/>
<feBlend mode="normal" in2="BackgroundImageFix" result="effect1_dropShadow_125_3733"/>
<feBlend mode="normal" in="SourceGraphic" in2="effect1_dropShadow_125_3733" result="shape"/>
</filter>
<filter id="filter27_d_125_3733" x="630.02" y="282.298" width="90.141" height="233.993" filterUnits="userSpaceOnUse" color-interpolation-filters="sRGB">
<feFlood flood-opacity="0" result="BackgroundImageFix"/>
<feColorMatrix in="SourceAlpha" type="matrix" values="0 0 0 0 0 0 0 0 0 0 0 0 0 0 0 0 0 0 127 0" result="hardAlpha"/>
<feOffset/>
<feGaussianBlur stdDeviation="4.4"/>
<feComposite in2="hardAlpha" operator="out"/>
<feColorMatrix type="matrix" values="0 0 0 0 0 0 0 0 0 0 0 0 0 0 0 0 0 0 0.5 0"/>
<feBlend mode="normal" in2="BackgroundImageFix" result="effect1_dropShadow_125_3733"/>
<feBlend mode="normal" in="SourceGraphic" in2="effect1_dropShadow_125_3733" result="shape"/>
</filter>
<filter id="filter28_d_125_3733" x="633.708" y="295.593" width="82.7639" height="221.698" filterUnits="userSpaceOnUse" color-interpolation-filters="sRGB">
<feFlood flood-opacity="0" result="BackgroundImageFix"/>
<feColorMatrix in="SourceAlpha" type="matrix" values="0 0 0 0 0 0 0 0 0 0 0 0 0 0 0 0 0 0 127 0" result="hardAlpha"/>
<feOffset/>
<feGaussianBlur stdDeviation="4.4"/>
<feComposite in2="hardAlpha" operator="out"/>
<feColorMatrix type="matrix" values="0 0 0 0 0 0 0 0 0 0 0 0 0 0 0 0 0 0 0.5 0"/>
<feBlend mode="normal" in2="BackgroundImageFix" result="effect1_dropShadow_125_3733"/>
<feBlend mode="normal" in="SourceGraphic" in2="effect1_dropShadow_125_3733" result="shape"/>
</filter>
<filter id="filter29_d_125_3733" x="646.003" y="305.118" width="58.1738" height="194.649" filterUnits="userSpaceOnUse" color-interpolation-filters="sRGB">
<feFlood flood-opacity="0" result="BackgroundImageFix"/>
<feColorMatrix in="SourceAlpha" type="matrix" values="0 0 0 0 0 0 0 0 0 0 0 0 0 0 0 0 0 0 127 0" result="hardAlpha"/>
<feOffset/>
<feGaussianBlur stdDeviation="4.4"/>
<feComposite in2="hardAlpha" operator="out"/>
<feColorMatrix type="matrix" values="0 0 0 0 0 0 0 0 0 0 0 0 0 0 0 0 0 0 0.5 0"/>
<feBlend mode="normal" in2="BackgroundImageFix" result="effect1_dropShadow_125_3733"/>
<feBlend mode="normal" in="SourceGraphic" in2="effect1_dropShadow_125_3733" result="shape"/>
</filter>
<filter id="filter30_d_125_3733" x="15.2656" y="498.151" width="845.059" height="38.5016" filterUnits="userSpaceOnUse" color-interpolation-filters="sRGB">
<feFlood flood-opacity="0" result="BackgroundImageFix"/>
<feColorMatrix in="SourceAlpha" type="matrix" values="0 0 0 0 0 0 0 0 0 0 0 0 0 0 0 0 0 0 127 0" result="hardAlpha"/>
<feOffset/>
<feGaussianBlur stdDeviation="4.4"/>
<feComposite in2="hardAlpha" operator="out"/>
<feColorMatrix type="matrix" values="0 0 0 0 0 0 0 0 0 0 0 0 0 0 0 0 0 0 0.5 0"/>
<feBlend mode="normal" in2="BackgroundImageFix" result="effect1_dropShadow_125_3733"/>
<feBlend mode="normal" in="SourceGraphic" in2="effect1_dropShadow_125_3733" result="shape"/>
</filter>
<filter id="filter31_d_125_3733" x="4.2" y="509.216" width="867.19" height="33.5836" filterUnits="userSpaceOnUse" color-interpolation-filters="sRGB">
<feFlood flood-opacity="0" result="BackgroundImageFix"/>
<feColorMatrix in="SourceAlpha" type="matrix" values="0 0 0 0 0 0 0 0 0 0 0 0 0 0 0 0 0 0 127 0" result="hardAlpha"/>
<feOffset/>
<feGaussianBlur stdDeviation="4.4"/>
<feComposite in2="hardAlpha" operator="out"/>
<feColorMatrix type="matrix" values="0 0 0 0 0 0 0 0 0 0 0 0 0 0 0 0 0 0 0.5 0"/>
<feBlend mode="normal" in2="BackgroundImageFix" result="effect1_dropShadow_125_3733"/>
<feBlend mode="normal" in="SourceGraphic" in2="effect1_dropShadow_125_3733" result="shape"/>
</filter>
</defs>
</svg>
