<svg width="1511" height="506" viewBox="0 0 1511 506" fill="none" xmlns="http://www.w3.org/2000/svg">
<mask id="mask0_125_3728" style="mask-type:alpha" maskUnits="userSpaceOnUse" x="-36" y="0" width="1597" height="506">
<path fill-rule="evenodd" clip-rule="evenodd" d="M239.3 10.3909C240.725 9.63921 242.131 8.85207 243.517 8.03056C255.415 36.7843 282.029 56.8087 312.951 56.8087C345.195 56.8087 372.753 35.036 383.829 4.29685C398.922 17.9274 417.748 26.8547 438.398 29.0063C435.718 40.3217 434.298 52.1472 434.298 64.3155C434.298 146.104 498.479 212.407 577.65 212.407C625.872 212.407 668.533 187.81 694.517 150.099C719.314 182.339 756.619 202.852 798.338 202.852C833.151 202.852 864.89 188.569 888.853 165.106C909.615 193.379 939.128 211.042 971.87 211.042C1022.56 211.042 1065.51 168.715 1080.23 110.223C1087.49 111.894 1094.98 112.769 1102.65 112.769C1133.54 112.769 1161.68 98.5513 1182.82 75.2448C1196.77 93.1855 1217.65 104.58 1240.97 104.58C1277.91 104.58 1308.7 76.0033 1315.6 38.106C1337.39 84.1223 1380.82 115.499 1430.85 115.499C1493.74 115.499 1546.21 65.9168 1558.35 0C1560.09 9.53296 1561 19.4037 1561 29.5139C1561 33.8441 1560.83 38.1303 1560.51 42.3648H1561V505.48H-36V75.0711V42.3648H-33.9003C-22.5093 113.401 33.8648 167.365 101.694 167.365C177.74 167.365 239.388 99.5348 239.388 15.8618C239.388 14.0304 239.359 12.2066 239.3 10.3909Z" fill="#FFFEDA"/>
</mask>
<g mask="url(#mask0_125_3728)">
<path fill-rule="evenodd" clip-rule="evenodd" d="M239.3 10.3909C240.725 9.63921 242.131 8.85207 243.517 8.03056C255.415 36.7843 282.029 56.8087 312.951 56.8087C345.195 56.8087 372.753 35.036 383.829 4.29685C398.922 17.9274 417.748 26.8547 438.398 29.0063C435.718 40.3217 434.298 52.1472 434.298 64.3155C434.298 146.104 498.479 212.407 577.65 212.407C625.872 212.407 668.533 187.81 694.517 150.099C719.314 182.339 756.619 202.852 798.338 202.852C833.151 202.852 864.89 188.569 888.853 165.106C909.615 193.379 939.128 211.042 971.87 211.042C1022.56 211.042 1065.51 168.715 1080.23 110.223C1087.49 111.894 1094.98 112.769 1102.65 112.769C1133.54 112.769 1161.68 98.5513 1182.82 75.2448C1196.77 93.1855 1217.65 104.58 1240.97 104.58C1277.91 104.58 1308.7 76.0033 1315.6 38.106C1337.39 84.1223 1380.82 115.499 1430.85 115.499C1493.74 115.499 1546.21 65.9168 1558.35 0C1560.09 9.53296 1561 19.4037 1561 29.5139C1561 33.8441 1560.83 38.1303 1560.51 42.3648H1561V505.48H-36V75.0711V42.3648H-33.9003C-22.5093 113.401 33.8648 167.365 101.694 167.365C177.74 167.365 239.388 99.5348 239.388 15.8618C239.388 14.0304 239.359 12.2066 239.3 10.3909Z" fill="url(#paint0_linear_125_3728)"/>
<g filter="url(#filter0_d_125_3728)">
<path d="M1561 42.3648H1560.51C1560.83 38.1303 1561 33.8441 1561 29.5139C1561 19.4037 1560.09 9.53296 1558.35 0C1546.21 65.9168 1493.74 115.499 1430.85 115.499C1380.82 115.499 1337.39 84.1223 1315.6 38.106C1308.7 76.0033 1277.91 104.58 1240.97 104.58C1217.65 104.58 1196.77 93.1855 1182.82 75.2448C1161.68 98.5513 1133.54 112.769 1102.65 112.769C1094.98 112.769 1087.49 111.894 1080.23 110.223C1065.51 168.715 1022.56 211.042 971.87 211.042C939.128 211.042 909.615 193.379 888.853 165.106C864.89 188.569 833.151 202.852 798.338 202.852C756.619 202.852 719.314 182.339 694.517 150.099C668.533 187.81 625.872 212.407 577.65 212.407C498.479 212.407 434.298 146.104 434.298 64.3155C434.298 52.1472 435.718 40.3217 438.398 29.0063C417.748 26.8547 398.922 17.9274 383.829 4.29685C372.753 35.0361 345.195 56.8087 312.951 56.8087C282.029 56.8087 255.415 36.7843 243.517 8.03056C242.131 8.85207 240.725 9.63921 239.3 10.3909C239.359 12.2066 239.388 14.0304 239.388 15.8618C239.388 99.5348 177.74 167.365 101.694 167.365C33.8648 167.365 -22.5093 113.401 -33.9003 42.3648H-36V75.0711" stroke="white"/>
</g>
</g>
<defs>
<filter id="filter0_d_125_3728" x="-46.7" y="-10.2906" width="1618.4" height="233.397" filterUnits="userSpaceOnUse" color-interpolation-filters="sRGB">
<feFlood flood-opacity="0" result="BackgroundImageFix"/>
<feColorMatrix in="SourceAlpha" type="matrix" values="0 0 0 0 0 0 0 0 0 0 0 0 0 0 0 0 0 0 127 0" result="hardAlpha"/>
<feOffset/>
<feGaussianBlur stdDeviation="5.1"/>
<feComposite in2="hardAlpha" operator="out"/>
<feColorMatrix type="matrix" values="0 0 0 0 0 0 0 0 0 0 0 0 0 0 0 0 0 0 0.58 0"/>
<feBlend mode="normal" in2="BackgroundImageFix" result="effect1_dropShadow_125_3728"/>
<feBlend mode="normal" in="SourceGraphic" in2="effect1_dropShadow_125_3728" result="shape"/>
</filter>
<linearGradient id="paint0_linear_125_3728" x1="762.5" y1="-773.087" x2="762.5" y2="364.5" gradientUnits="userSpaceOnUse">
<stop stop-color="#FFFEDA"/>
<stop offset="1" stop-color="#84D6E2" stop-opacity="0"/>
</linearGradient>
</defs>
</svg>
