<svg width="1597" height="354" viewBox="0 0 1597 354" fill="none" xmlns="http://www.w3.org/2000/svg">
<mask id="mask0_16_37" style="mask-type:alpha" maskUnits="userSpaceOnUse" x="0" y="0" width="1597" height="354">
<path fill-rule="evenodd" clip-rule="evenodd" d="M279.517 8.03056C278.131 8.85207 276.725 9.63921 275.3 10.3909C275.359 12.2066 275.388 14.0304 275.388 15.8618C275.388 99.5348 213.74 167.365 137.694 167.365C69.8648 167.365 13.4907 113.401 2.09972 42.3648H0V75.0711V354H1597V42.3648H1596.51C1596.83 38.1303 1597 33.8441 1597 29.5139C1597 19.4037 1596.09 9.53296 1594.35 0C1582.21 65.9168 1529.74 115.499 1466.85 115.499C1416.82 115.499 1373.39 84.1223 1351.6 38.106C1344.7 76.0033 1313.91 104.58 1276.97 104.58C1253.65 104.58 1232.77 93.1855 1218.82 75.2448C1197.68 98.5513 1169.54 112.769 1138.65 112.769C1130.98 112.769 1123.49 111.894 1116.23 110.223C1101.51 168.715 1058.56 211.042 1007.87 211.042C975.128 211.042 945.615 193.379 924.853 165.106C900.89 188.569 869.151 202.852 834.338 202.852C792.619 202.852 755.314 182.339 730.517 150.099C704.533 187.81 661.872 212.407 613.65 212.407C534.479 212.407 470.298 146.104 470.298 64.3155C470.298 52.1472 471.718 40.3217 474.398 29.0063C453.748 26.8547 434.922 17.9274 419.829 4.29685C408.753 35.036 381.195 56.8087 348.951 56.8087C318.029 56.8087 291.415 36.7843 279.517 8.03056Z" fill="#FFFEDA"/>
</mask>
<g mask="url(#mask0_16_37)">
<g filter="url(#filter0_d_16_37)">
<path d="M1597 42.3648H1596.51C1596.83 38.1303 1597 33.8441 1597 29.5139C1597 19.4037 1596.09 9.53296 1594.35 0C1582.21 65.9168 1529.74 115.499 1466.85 115.499C1416.82 115.499 1373.39 84.1223 1351.6 38.106C1344.7 76.0033 1313.91 104.58 1276.97 104.58C1253.65 104.58 1232.77 93.1855 1218.82 75.2448C1197.68 98.5513 1169.54 112.769 1138.65 112.769C1130.98 112.769 1123.49 111.894 1116.23 110.223C1101.51 168.715 1058.56 211.042 1007.87 211.042C975.128 211.042 945.615 193.379 924.853 165.106C900.89 188.569 869.151 202.852 834.338 202.852C792.619 202.852 755.314 182.339 730.517 150.099C704.533 187.81 661.872 212.407 613.65 212.407C534.479 212.407 470.298 146.104 470.298 64.3155C470.298 52.1472 471.718 40.3217 474.398 29.0063C453.748 26.8547 434.922 17.9274 419.829 4.29685C408.753 35.0361 381.195 56.8087 348.951 56.8087C318.029 56.8087 291.415 36.7843 279.517 8.03056C278.131 8.85207 276.725 9.63921 275.3 10.3909C275.359 12.2066 275.388 14.0304 275.388 15.8618C275.388 99.5348 213.74 167.365 137.694 167.365C69.8648 167.365 13.4907 113.401 2.09972 42.3648H0V75.0711" stroke="white"/>
</g>
<path fill-rule="evenodd" clip-rule="evenodd" d="M279.517 8.03056C278.131 8.85207 276.725 9.63921 275.3 10.3909C275.359 12.2066 275.388 14.0304 275.388 15.8618C275.388 99.5348 213.74 167.365 137.694 167.365C69.8648 167.365 13.4907 113.401 2.09972 42.3648H0V75.0711V347H1597V42.3648H1596.51C1596.83 38.1303 1597 33.8441 1597 29.5139C1597 19.4037 1596.09 9.53296 1594.35 0C1582.21 65.9168 1529.74 115.499 1466.85 115.499C1416.82 115.499 1373.39 84.1223 1351.6 38.106C1344.7 76.0033 1313.91 104.58 1276.97 104.58C1253.65 104.58 1232.77 93.1855 1218.82 75.2448C1197.68 98.5513 1169.54 112.769 1138.65 112.769C1130.98 112.769 1123.49 111.894 1116.23 110.223C1101.51 168.715 1058.56 211.042 1007.87 211.042C975.128 211.042 945.615 193.379 924.853 165.106C900.89 188.569 869.151 202.852 834.338 202.852C792.619 202.852 755.314 182.339 730.517 150.099C704.533 187.81 661.872 212.407 613.65 212.407C534.479 212.407 470.298 146.104 470.298 64.3155C470.298 52.1472 471.718 40.3217 474.398 29.0063C453.748 26.8547 434.922 17.9274 419.829 4.29685C408.753 35.036 381.195 56.8087 348.951 56.8087C318.029 56.8087 291.415 36.7843 279.517 8.03056Z" fill="url(#paint0_linear_16_37)"/>
</g>
<defs>
<filter id="filter0_d_16_37" x="-10.7" y="-10.2906" width="1618.4" height="233.397" filterUnits="userSpaceOnUse" color-interpolation-filters="sRGB">
<feFlood flood-opacity="0" result="BackgroundImageFix"/>
<feColorMatrix in="SourceAlpha" type="matrix" values="0 0 0 0 0 0 0 0 0 0 0 0 0 0 0 0 0 0 127 0" result="hardAlpha"/>
<feOffset/>
<feGaussianBlur stdDeviation="5.1"/>
<feComposite in2="hardAlpha" operator="out"/>
<feColorMatrix type="matrix" values="0 0 0 0 0 0 0 0 0 0 0 0 0 0 0 0 0 0 0.58 0"/>
<feBlend mode="normal" in2="BackgroundImageFix" result="effect1_dropShadow_16_37"/>
<feBlend mode="normal" in="SourceGraphic" in2="effect1_dropShadow_16_37" result="shape"/>
</filter>
<linearGradient id="paint0_linear_16_37" x1="798.5" y1="-773.087" x2="798.5" y2="364.5" gradientUnits="userSpaceOnUse">
<stop stop-color="#FFFEDA"/>
<stop offset="1" stop-color="#84D6E2" stop-opacity="0"/>
</linearGradient>
</defs>
</svg>
