<svg width="119" height="68" viewBox="0 0 119 68" fill="none" xmlns="http://www.w3.org/2000/svg">
<g filter="url(#filter0_i_125_4149)">
<path d="M33.8182 65V59.8333C33.8182 52.9819 36.5239 46.4111 41.3402 41.5664C46.1565 36.7217 52.6888 34 59.5 34M59.5 34C66.3112 34 72.8435 36.7217 77.6598 41.5664C82.4761 46.4111 85.1818 52.9819 85.1818 59.8333V65M59.5 34C63.5867 34 67.5061 32.367 70.3959 29.4602C73.2856 26.5533 74.9091 22.6109 74.9091 18.5C74.9091 14.3891 73.2856 10.4467 70.3959 7.53985C67.5061 4.63303 63.5867 3 59.5 3C55.4133 3 51.4939 4.63303 48.6041 7.53985C45.7144 10.4467 44.0909 14.3891 44.0909 18.5C44.0909 22.6109 45.7144 26.5533 48.6041 29.4602C51.4939 32.367 55.4133 34 59.5 34ZM3 65V59.8333C3 55.7225 4.62345 51.78 7.51322 48.8732C10.403 45.9664 14.3223 44.3333 18.4091 44.3333M18.4091 44.3333C21.1336 44.3333 23.7465 43.2446 25.673 41.3068C27.5995 39.3689 28.6818 36.7406 28.6818 34C28.6818 31.2594 27.5995 28.6311 25.673 26.6932C23.7465 24.7554 21.1336 23.6667 18.4091 23.6667C15.6846 23.6667 13.0717 24.7554 11.1452 26.6932C9.21867 28.6311 8.13636 31.2594 8.13636 34C8.13636 36.7406 9.21867 39.3689 11.1452 41.3068C13.0717 43.2446 15.6846 44.3333 18.4091 44.3333ZM116 65V59.8333C116 55.7225 114.377 51.78 111.487 48.8732C108.597 45.9664 104.678 44.3333 100.591 44.3333M100.591 44.3333C103.315 44.3333 105.928 43.2446 107.855 41.3068C109.781 39.3689 110.864 36.7406 110.864 34C110.864 31.2594 109.781 28.6311 107.855 26.6932C105.928 24.7554 103.315 23.6667 100.591 23.6667C97.8664 23.6667 95.2535 24.7554 93.327 26.6932C91.4005 28.6311 90.3182 31.2594 90.3182 34C90.3182 36.7406 91.4005 39.3689 93.327 41.3068C95.2535 43.2446 97.8664 44.3333 100.591 44.3333Z" stroke="white" stroke-width="5" stroke-linecap="round" stroke-linejoin="round"/>
</g>
<defs>
<filter id="filter0_i_125_4149" x="0.5" y="0.5" width="118" height="67.8" filterUnits="userSpaceOnUse" color-interpolation-filters="sRGB">
<feFlood flood-opacity="0" result="BackgroundImageFix"/>
<feBlend mode="normal" in="SourceGraphic" in2="BackgroundImageFix" result="shape"/>
<feColorMatrix in="SourceAlpha" type="matrix" values="0 0 0 0 0 0 0 0 0 0 0 0 0 0 0 0 0 0 127 0" result="hardAlpha"/>
<feOffset dy="3"/>
<feGaussianBlur stdDeviation="0.4"/>
<feComposite in2="hardAlpha" operator="arithmetic" k2="-1" k3="1"/>
<feColorMatrix type="matrix" values="0 0 0 0 0 0 0 0 0 0 0 0 0 0 0 0 0 0 0.25 0"/>
<feBlend mode="normal" in2="shape" result="effect1_innerShadow_125_4149"/>
</filter>
</defs>
</svg>
