<svg width="371" height="371" viewBox="0 0 371 371" fill="none" xmlns="http://www.w3.org/2000/svg">
<g filter="url(#filter0_d_124_665)">
<circle cx="185.5" cy="181.5" r="181.5" fill="#00B0FF"/>
</g>
<circle cx="185.5" cy="181.5" r="175.5" fill="white"/>
<circle cx="185.5" cy="181.5" r="169.5" fill="#F7EB00"/>
<circle cx="185.5" cy="181.5" r="163.5" fill="white"/>
<g filter="url(#filter1_d_124_665)">
<circle cx="185.5" cy="181.5" r="157.5" fill="#00B0FF"/>
<circle cx="185.5" cy="181.5" r="155.5" stroke="#303030" stroke-width="4"/>
</g>
<path d="M91.1574 87.0791C101.346 72.9729 106.759 63.001 110.374 49.219L139.562 99.7738L97.4061 124.112C91.4736 121.769 87.3646 116.229 85.9645 109.433C84.5323 102.482 85.958 94.278 91.1574 87.0791ZM141.294 98.7738L112.106 48.219C125.849 51.9795 137.192 52.2771 154.502 50.5069C163.336 49.6035 171.154 52.4708 176.458 57.1868C181.644 61.7974 184.386 68.1255 183.45 74.4351L141.294 98.7738Z" fill="#F7EB00" stroke="#303030" stroke-width="2"/>
<path fill-rule="evenodd" clip-rule="evenodd" d="M110.077 47.9143C119.578 67.1932 114.103 81.7206 112.143 90.0586C110.182 98.3966 112.257 108.321 118.335 110.56L101.106 121.227C92.7766 115.27 92.8723 97.4475 98.8936 86.4179C100.255 83.9236 101.803 81.6026 103.337 79.3012C108.878 70.9914 114.246 62.9387 110.077 47.9143Z" fill="#00B0FF" stroke="#303030" stroke-width="2"/>
<path fill-rule="evenodd" clip-rule="evenodd" d="M110.918 47.429C122.864 65.2959 138.183 67.8181 146.384 70.2896C154.585 72.7611 162.142 79.5199 161.042 85.903L178.895 76.3162C177.9 66.124 162.418 57.2955 149.855 56.9954C147.014 56.9275 144.23 57.1071 141.47 57.2853C131.503 57.9284 121.845 58.5517 110.918 47.429Z" fill="#00B0FF" stroke="#303030" stroke-width="2"/>
<path d="M148.393 70.4478C148.395 70.4481 148.396 70.4484 148.397 70.4487C149.571 70.7026 150.652 70.9368 151.64 71.174L151.873 70.2017L151.64 71.174C156.245 72.2806 160.582 74.5468 163.545 77.3591C166.388 80.0583 167.834 83.1156 167.335 86.0767L116.523 115.413C113.71 114.365 111.785 111.584 110.869 107.771C109.915 103.799 110.121 98.9102 111.465 94.3689C111.753 93.3958 112.091 92.3426 112.458 91.2004L112.458 91.1989L112.459 91.1967L112.46 91.1937C112.56 90.8797 112.664 90.5596 112.769 90.2325L112.779 90.2011C115.541 81.6418 119.703 68.7423 114.677 53.265C125.67 65.5458 138.948 68.4102 147.738 70.3064L147.767 70.3126L147.767 70.3126L148.393 70.4478C148.393 70.4478 148.393 70.4478 148.393 70.4478Z" fill="#F7EB00" stroke="#303030" stroke-width="2"/>
<path d="M283.43 275.564C273.242 289.671 267.828 299.642 264.213 313.424L235.025 262.87L277.181 238.531C283.114 240.875 287.223 246.414 288.623 253.21C290.055 260.161 288.629 268.365 283.43 275.564ZM233.293 263.87L262.481 314.424C248.738 310.664 237.396 310.366 220.085 312.137C211.251 313.04 203.433 310.173 198.129 305.457C192.944 300.846 190.201 294.518 191.138 288.208L233.293 263.87Z" fill="#F7EB00" stroke="#303030" stroke-width="2"/>
<path fill-rule="evenodd" clip-rule="evenodd" d="M264.51 314.729C255.01 295.45 260.485 280.923 262.445 272.585C264.405 264.247 262.331 254.322 256.252 252.084L273.481 241.416C281.811 247.373 281.715 265.196 275.694 276.225C274.332 278.72 272.785 281.041 271.25 283.342C265.71 291.652 260.341 299.705 264.51 314.729Z" fill="#00B0FF" stroke="#303030" stroke-width="2"/>
<path fill-rule="evenodd" clip-rule="evenodd" d="M263.669 315.214C251.723 297.348 236.405 294.825 228.204 292.354C220.003 289.882 212.445 283.124 213.546 276.74L195.693 286.327C196.687 296.519 212.17 305.348 224.732 305.648C227.573 305.716 230.357 305.536 233.117 305.358C243.084 304.715 252.742 304.092 263.669 315.214Z" fill="#00B0FF" stroke="#303030" stroke-width="2"/>
<path d="M226.194 292.195C226.193 292.195 226.191 292.195 226.19 292.195C225.017 291.941 223.935 291.707 222.948 291.469L222.714 292.442L222.948 291.469C218.343 290.363 214.005 288.097 211.043 285.284C208.199 282.585 206.753 279.528 207.252 276.567L258.064 247.23C260.878 248.279 262.803 251.06 263.718 254.872C264.672 258.844 264.466 263.733 263.122 268.274C262.834 269.248 262.496 270.301 262.13 271.443L262.129 271.444L262.129 271.447L262.128 271.45C262.027 271.764 261.924 272.084 261.818 272.411L261.808 272.442C259.046 281.002 254.885 293.901 259.91 309.378C248.917 297.098 235.639 294.233 226.849 292.337L226.82 292.331L226.82 292.331L226.195 292.196C226.194 292.196 226.194 292.196 226.194 292.195Z" fill="#F7EB00" stroke="#303030" stroke-width="2"/>
<path d="M220.842 50.9439C238.153 52.7141 249.495 52.4165 263.238 48.6559L234.05 99.2108L191.895 74.8721C190.958 68.5625 193.701 62.2343 198.886 57.6238C204.19 52.9078 212.008 50.0405 220.842 50.9439ZM235.782 100.211L264.97 49.6559C268.585 63.438 273.999 73.4099 284.187 87.5161C289.386 94.715 290.812 102.919 289.38 109.87C287.98 116.666 283.871 122.206 277.938 124.549L235.782 100.211Z" fill="#F7EB00" stroke="#303030" stroke-width="2"/>
<path fill-rule="evenodd" clip-rule="evenodd" d="M264.22 47.7465C252.274 65.6134 236.955 68.1357 228.754 70.6071C220.553 73.0786 212.996 79.8374 214.096 86.2205L196.243 76.6337C197.237 66.4415 212.72 57.6131 225.283 57.3129C228.124 57.245 230.907 57.4246 233.668 57.6028C243.634 58.2459 253.293 58.8692 264.22 47.7465Z" fill="#00B0FF" stroke="#303030" stroke-width="2"/>
<path fill-rule="evenodd" clip-rule="evenodd" d="M265.06 48.2322C255.56 67.511 261.035 82.0385 262.995 90.3765C264.955 98.7145 262.881 108.639 256.803 110.877L274.032 121.545C282.361 115.588 282.266 97.7654 276.244 86.7358C274.883 84.2415 273.335 81.9204 271.801 79.6191C266.26 71.3093 260.891 63.2565 265.06 48.2322Z" fill="#00B0FF" stroke="#303030" stroke-width="2"/>
<path d="M263.863 92.196C263.864 92.1974 263.864 92.1988 263.864 92.2001C264.231 93.3433 264.569 94.397 264.857 95.3708L265.816 95.087L264.857 95.3708C266.202 99.9121 266.408 104.801 265.454 108.773C264.538 112.585 262.613 115.366 259.799 116.415L208.987 87.0786C208.488 84.1175 209.934 81.0602 212.778 78.361C215.741 75.5487 220.078 73.2825 224.683 72.1759C225.67 71.9388 226.751 71.7048 227.923 71.4511L227.925 71.4508L227.927 71.4503L227.93 71.4496C228.252 71.3799 228.581 71.3092 228.917 71.2371L228.949 71.2302C237.743 69.3421 250.995 66.4966 261.886 54.4056C256.747 70.0664 260.905 82.9979 263.658 91.558L263.667 91.5861L263.667 91.5862L263.863 92.1957C263.863 92.1958 263.863 92.1959 263.863 92.196Z" fill="#F7EB00" stroke="#303030" stroke-width="2"/>
<path d="M153.745 311.699C136.435 309.929 125.092 310.227 111.349 313.987L140.537 263.433L182.693 287.771C183.629 294.081 180.887 300.409 175.701 305.02C170.397 309.736 162.58 312.603 153.745 311.699ZM138.805 262.433L109.617 312.987C106.002 299.205 100.589 289.233 90.4005 275.127C85.2011 267.928 83.7754 259.724 85.2076 252.773C86.6077 245.977 90.7167 240.438 96.6492 238.094L138.805 262.433Z" fill="#F7EB00" stroke="#303030" stroke-width="2"/>
<path fill-rule="evenodd" clip-rule="evenodd" d="M110.368 314.897C122.314 297.03 137.632 294.508 145.833 292.036C154.034 289.565 161.592 282.806 160.491 276.423L178.345 286.01C177.35 296.202 161.867 305.03 149.305 305.33C146.464 305.398 143.68 305.219 140.92 305.04C130.953 304.397 121.295 303.774 110.368 314.897Z" fill="#00B0FF" stroke="#303030" stroke-width="2"/>
<path fill-rule="evenodd" clip-rule="evenodd" d="M109.527 314.411C119.027 295.132 113.552 280.605 111.592 272.267C109.632 263.929 111.706 254.004 117.785 251.766L100.556 241.098C92.2262 247.055 92.3219 264.878 98.3432 275.908C99.7049 278.402 101.252 280.723 102.787 283.024C108.327 291.334 113.696 299.387 109.527 314.411Z" fill="#00B0FF" stroke="#303030" stroke-width="2"/>
<path d="M110.724 270.447C110.724 270.446 110.724 270.445 110.723 270.443C110.356 269.3 110.018 268.246 109.73 267.273L108.771 267.556L109.73 267.273C108.386 262.731 108.18 257.842 109.134 253.87C110.05 250.058 111.974 247.277 114.788 246.229L165.6 275.565C166.099 278.526 164.653 281.583 161.81 284.282C158.847 287.095 154.51 289.361 149.905 290.467C148.918 290.705 147.837 290.939 146.664 291.192L146.663 291.193L146.661 291.193L146.658 291.194C146.335 291.264 146.006 291.334 145.67 291.406L145.638 291.413C136.845 293.301 123.593 296.147 112.702 308.238C117.841 292.577 113.682 279.646 110.929 271.085L110.92 271.057L110.92 271.057L110.725 270.448C110.725 270.448 110.724 270.448 110.724 270.447Z" fill="#F7EB00" stroke="#303030" stroke-width="2"/>
<path d="M316.978 145.187C324.1 161.063 330.03 170.737 340.158 180.759L281.782 180.759L281.782 132.081C286.778 128.116 293.63 127.327 300.215 129.512C306.952 131.748 313.344 137.084 316.978 145.187ZM281.782 182.759L340.158 182.759C330.03 192.78 324.1 202.455 316.978 218.331C313.344 226.433 306.952 231.77 300.215 234.005C293.63 236.191 286.778 235.402 281.782 231.436L281.782 182.759Z" fill="#F7EB00" stroke="#303030" stroke-width="2"/>
<path fill-rule="evenodd" clip-rule="evenodd" d="M341.436 181.154C319.99 179.742 310.146 167.737 303.905 161.87C297.664 156.004 288.032 152.838 283.055 156.983L282.431 136.728C291.754 132.493 307.142 141.487 313.683 152.217C315.162 154.643 316.398 157.144 317.624 159.623C322.051 168.576 326.34 177.252 341.436 181.154Z" fill="#00B0FF" stroke="#303030" stroke-width="2"/>
<path fill-rule="evenodd" clip-rule="evenodd" d="M341.436 182.125C319.99 183.537 310.146 195.542 303.905 201.409C297.664 207.275 288.032 210.441 283.055 206.296L282.431 226.551C291.754 230.786 307.141 221.792 313.683 211.062C315.162 208.636 316.398 206.135 317.624 203.656C322.05 194.703 326.34 186.027 341.436 182.125Z" fill="#00B0FF" stroke="#303030" stroke-width="2"/>
<path d="M302.764 203.07C302.763 203.071 302.762 203.072 302.761 203.073C301.954 203.962 301.21 204.782 300.511 205.519L301.236 206.207L300.511 205.519C297.25 208.953 293.119 211.576 289.202 212.736C285.443 213.849 282.072 213.573 279.757 211.66L279.757 152.987C282.072 151.075 285.443 150.798 289.202 151.911C293.119 153.071 297.25 155.694 300.511 159.129C301.21 159.865 301.953 160.684 302.759 161.573L302.76 161.574L302.762 161.575L302.764 161.578C302.985 161.822 303.211 162.071 303.441 162.326L303.464 162.351C309.495 169.022 318.586 179.076 334.502 182.462C318.37 185.842 309.25 195.909 303.214 202.573L303.194 202.595L303.194 202.595L302.764 203.07C302.764 203.07 302.764 203.07 302.764 203.07Z" fill="#F7EB00" stroke="#303030" stroke-width="2"/>
<path d="M57.6089 217.457C50.4867 201.581 44.5576 191.906 34.4294 181.885L92.8051 181.885L92.8051 230.562C87.8091 234.528 80.9574 235.317 74.3718 233.131C67.6356 230.896 61.2436 225.559 57.6089 217.457ZM92.8051 179.885L34.4294 179.885C44.5576 169.863 50.4867 160.189 57.6089 144.312C61.2436 136.21 67.6356 130.874 74.3718 128.638C80.9574 126.453 87.8091 127.242 92.8051 131.207L92.8051 179.885Z" fill="#F7EB00" stroke="#303030" stroke-width="2"/>
<path fill-rule="evenodd" clip-rule="evenodd" d="M33.1512 181.489C54.5973 182.901 64.441 194.907 70.6818 200.773C76.9227 206.64 86.5548 209.805 91.5324 205.661L92.1565 225.915C82.8327 230.15 67.4457 221.156 60.9044 210.427C59.4251 208 58.1888 205.499 56.963 203.02C52.5366 194.067 48.2472 185.391 33.1512 181.489Z" fill="#00B0FF" stroke="#303030" stroke-width="2"/>
<path fill-rule="evenodd" clip-rule="evenodd" d="M33.1514 180.518C54.5974 179.106 64.4411 167.101 70.682 161.235C76.9228 155.368 86.5549 152.203 91.5326 156.347L92.1567 136.093C82.8328 131.858 67.4458 140.852 60.9045 151.581C59.4253 154.008 58.1889 156.508 56.9631 158.988C52.5367 167.941 48.2473 176.617 33.1514 180.518Z" fill="#00B0FF" stroke="#303030" stroke-width="2"/>
<path d="M71.8237 159.574C71.8246 159.572 71.8256 159.571 71.8266 159.57C72.6331 158.681 73.3767 157.861 74.0759 157.125L73.3507 156.436L74.0759 157.125C77.3367 153.69 81.4679 151.067 85.3847 149.908C89.1441 148.795 92.5149 149.071 94.8298 150.984L94.8298 209.656C92.5149 211.569 89.1441 211.845 85.3847 210.732C81.4679 209.573 77.3367 206.949 74.0759 203.515C73.3772 202.779 72.634 201.959 71.8281 201.071L71.827 201.07L71.8255 201.068L71.8233 201.066C71.6018 200.822 71.3762 200.572 71.1457 200.317L71.1236 200.293C65.0918 193.621 56.0014 183.567 40.0848 180.181C56.2169 176.801 65.3367 166.734 71.3736 160.07L71.3934 160.048L71.3936 160.048L71.8234 159.574C71.8235 159.574 71.8236 159.574 71.8237 159.574Z" fill="#F7EB00" stroke="#303030" stroke-width="2"/>
<circle cx="185.5" cy="181.5" r="107.9" fill="#303030" stroke="#303030" stroke-width="2"/>
<ellipse cx="185.5" cy="182.105" rx="100.43" ry="99.825" fill="white"/>
<circle cx="185.5" cy="181.5" r="90.75" fill="#303030"/>
<path fill-rule="evenodd" clip-rule="evenodd" d="M264.519 181.5C264.519 226.274 228.223 262.57 183.449 262.57C147.023 262.57 116.208 238.546 105.984 205.479H121.697C131.304 230.202 155.33 247.726 183.449 247.726C220.025 247.726 249.675 218.076 249.675 181.5C249.675 144.925 220.025 115.274 183.449 115.274C154.899 115.274 130.569 133.34 121.266 158.663H105.64C115.502 125.008 146.605 100.43 183.449 100.43C228.223 100.43 264.519 136.726 264.519 181.5Z" fill="white"/>
<rect x="127.499" y="124.409" width="14.8438" height="110.758" fill="white"/>
<rect x="162.896" y="203.195" width="14.8438" height="52.5242" fill="white"/>
<rect x="162.896" y="109.565" width="14.8438" height="76.5027" fill="white"/>
<rect x="209.711" y="171.224" width="14.8438" height="45.6732" transform="rotate(90 209.711 171.224)" fill="white"/>
<rect x="257.668" y="171.224" width="14.8438" height="36.5386" transform="rotate(90 257.668 171.224)" fill="white"/>
<rect x="194.867" y="181.5" width="14.8438" height="74.219" fill="white"/>
<rect x="194.867" y="109.565" width="14.8438" height="47.9569" fill="white"/>
<rect x="218.846" y="123.267" width="14.8438" height="118.75" fill="white"/>
<defs>
<filter id="filter0_d_124_665" x="0" y="0" width="371" height="371" filterUnits="userSpaceOnUse" color-interpolation-filters="sRGB">
<feFlood flood-opacity="0" result="BackgroundImageFix"/>
<feColorMatrix in="SourceAlpha" type="matrix" values="0 0 0 0 0 0 0 0 0 0 0 0 0 0 0 0 0 0 127 0" result="hardAlpha"/>
<feOffset dy="4"/>
<feGaussianBlur stdDeviation="2"/>
<feComposite in2="hardAlpha" operator="out"/>
<feColorMatrix type="matrix" values="0 0 0 0 0 0 0 0 0 0 0 0 0 0 0 0 0 0 0.25 0"/>
<feBlend mode="normal" in2="BackgroundImageFix" result="effect1_dropShadow_124_665"/>
<feBlend mode="normal" in="SourceGraphic" in2="effect1_dropShadow_124_665" result="shape"/>
</filter>
<filter id="filter1_d_124_665" x="24" y="24" width="323" height="323" filterUnits="userSpaceOnUse" color-interpolation-filters="sRGB">
<feFlood flood-opacity="0" result="BackgroundImageFix"/>
<feColorMatrix in="SourceAlpha" type="matrix" values="0 0 0 0 0 0 0 0 0 0 0 0 0 0 0 0 0 0 127 0" result="hardAlpha"/>
<feOffset dy="4"/>
<feGaussianBlur stdDeviation="2"/>
<feComposite in2="hardAlpha" operator="out"/>
<feColorMatrix type="matrix" values="0 0 0 0 0 0 0 0 0 0 0 0 0 0 0 0 0 0 0.25 0"/>
<feBlend mode="normal" in2="BackgroundImageFix" result="effect1_dropShadow_124_665"/>
<feBlend mode="normal" in="SourceGraphic" in2="effect1_dropShadow_124_665" result="shape"/>
</filter>
</defs>
</svg>
