<svg width="1368" height="863" viewBox="0 0 1368 863" fill="none" xmlns="http://www.w3.org/2000/svg">
<g filter="url(#filter0_i_125_3685)">
<mask id="mask0_125_3685" style="mask-type:alpha" maskUnits="userSpaceOnUse" x="34" y="0" width="1300" height="819">
<rect x="34" y="0.110474" width="1300" height="818.779" rx="50" fill="#06A0DB"/>
</mask>
<g mask="url(#mask0_125_3685)">
<rect x="34" y="0.110474" width="1300" height="818.779" rx="50" fill="url(#paint0_linear_125_3685)"/>
<g filter="url(#filter1_i_125_3685)">
<path d="M1279.12 129.533L1256.14 116.566L1258.95 141.965L1244.94 161.942L1269.08 158.406L1292.64 175.789L1289.25 145.974L1304.16 125.442L1279.12 129.533Z" fill="#FFE483"/>
</g>
<g filter="url(#filter2_i_125_3685)">
<path d="M1196.28 130.214L1183.65 129.608L1190.32 139.874L1188.62 151.437L1198.19 144.731L1212.01 147.102L1204.15 135.071L1206.11 123.076L1196.28 130.214Z" fill="#FFE483"/>
</g>
<g filter="url(#filter3_i_125_3685)">
<circle cx="8.03709" cy="8.03709" r="8.03709" transform="matrix(-1 0 0 1 1238.78 109.924)" fill="white"/>
</g>
<g filter="url(#filter4_d_125_3685)">
<path fill-rule="evenodd" clip-rule="evenodd" d="M1315.19 482.878C1316.66 483.747 1318.14 484.579 1319.65 485.374C1319.59 487.294 1319.56 489.223 1319.56 491.159C1319.56 579.64 1384.75 651.369 1465.16 651.369C1545.58 651.369 1610.77 579.64 1610.77 491.159C1610.77 402.678 1545.58 330.95 1465.16 330.95C1464.04 330.95 1462.92 330.964 1461.8 330.992C1444.55 292.515 1408.18 266 1366.1 266C1313.34 266 1269.55 307.688 1261.17 362.372C1254.95 360.702 1248.46 359.816 1241.77 359.816C1227.97 359.816 1214.98 363.588 1203.63 370.234C1194.94 315.943 1151.32 274.66 1098.82 274.66C1040.42 274.66 993.01 325.741 992.447 388.986C982.567 386.895 972.336 385.796 961.858 385.796C952.859 385.796 944.044 386.606 935.477 388.159C926.668 350.305 895.085 322.29 857.473 322.29C819.687 322.29 787.985 350.566 779.348 388.688C763.546 382.156 746.402 378.58 728.488 378.58C687.239 378.58 650.07 397.544 623.979 427.877C602.842 404.364 575.214 390.126 544.984 390.126C538.305 390.126 531.754 390.821 525.372 392.157C508.26 332.989 461.586 290.537 406.691 290.537C345.281 290.537 294.16 343.662 283.202 413.884C275.979 411.573 268.332 410.333 260.419 410.333C234.807 410.333 211.99 423.324 197.256 443.567V443.529C197.256 359.034 135.638 290.537 59.6282 290.537C-16.3818 290.537 -78.0001 359.034 -78.0001 443.529C-78.0001 528.025 -16.3818 596.522 59.6282 596.522C112.53 596.522 158.461 563.342 181.498 514.681C188.796 554.757 221.356 584.975 260.419 584.975C285.085 584.975 307.159 572.926 321.916 553.955C344.264 578.6 374.021 593.636 406.691 593.636C414.795 593.636 422.72 592.71 430.397 590.943C445.969 652.796 491.384 697.555 544.984 697.555C579.608 697.555 610.817 678.878 632.772 648.98C658.112 673.791 691.675 688.895 728.488 688.895C772.604 688.895 812.053 667.203 838.275 633.11C865.753 672.988 910.865 698.998 961.858 698.998C1045.58 698.998 1113.45 628.886 1113.45 542.397C1113.45 529.53 1111.95 517.025 1109.11 505.059C1130.95 502.784 1150.86 493.344 1166.82 478.93C1178.53 511.435 1207.67 534.459 1241.77 534.459C1274.47 534.459 1302.61 513.284 1315.19 482.878Z" fill="url(#paint1_linear_125_3685)"/>
</g>
<g filter="url(#filter5_i_125_3685)">
<path d="M111.204 67.9426L134.182 54.9755L131.375 80.374L145.385 100.352L121.242 96.8152L97.6833 114.198L101.071 84.3837L86.1599 63.8512L111.204 67.9426Z" fill="#FFE483"/>
</g>
<g filter="url(#filter6_i_125_3685)">
<path d="M194.047 68.6238L206.67 68.0169L200.006 78.2831L201.705 89.8468L192.132 83.14L178.311 85.5119L186.174 73.4807L184.209 61.4857L194.047 68.6238Z" fill="#FFE483"/>
</g>
<g filter="url(#filter7_i_125_3685)">
<circle cx="159.58" cy="56.3701" r="8.03709" fill="white"/>
</g>
<g filter="url(#filter8_d_125_3685)">
<path fill-rule="evenodd" clip-rule="evenodd" d="M36.5586 513.015C47.518 456.915 92.3934 414.899 146.087 414.899C146.952 414.899 147.814 414.91 148.675 414.932C161.958 384.974 189.956 364.329 222.346 364.329C262.96 364.329 296.668 396.788 303.122 439.365C307.904 438.065 312.906 437.375 318.055 437.375C328.679 437.375 338.678 440.312 347.415 445.487C354.101 403.215 387.679 371.072 428.094 371.072C473.051 371.072 509.546 410.844 509.98 460.087C517.586 458.458 525.461 457.603 533.528 457.603C540.454 457.603 547.24 458.234 553.835 459.443C560.616 429.97 584.929 408.157 613.882 408.157C642.97 408.157 667.373 430.173 674.022 459.854C686.186 454.769 699.383 451.984 713.173 451.984C744.926 451.984 773.538 466.75 793.623 490.368C809.895 472.06 831.162 460.974 854.433 460.974C859.574 460.974 864.617 461.515 869.53 462.556C882.703 416.487 918.632 383.434 960.89 383.434C1008.16 383.434 1047.51 424.797 1055.95 479.472C1061.51 477.673 1067.4 476.707 1073.49 476.707C1093.2 476.707 1110.77 486.822 1122.11 502.584V502.554C1122.11 436.766 1169.54 383.434 1228.06 383.434C1286.57 383.434 1334 436.766 1334 502.554C1334 506.079 1333.86 509.568 1333.6 513.015H1334V890.003H34V539.639V513.015H36.5586Z" fill="url(#paint2_linear_125_3685)"/>
</g>
<g filter="url(#filter9_d_125_3685)">
<path fill-rule="evenodd" clip-rule="evenodd" d="M258.101 486.988C259.261 486.376 260.406 485.735 261.534 485.066C271.22 508.473 292.884 524.773 318.055 524.773C344.302 524.773 366.736 507.05 375.752 482.027C388.038 493.123 403.363 500.39 420.172 502.141C417.991 511.352 416.835 520.979 416.835 530.884C416.835 597.462 469.08 651.434 533.528 651.434C572.781 651.434 607.508 631.411 628.66 600.714C648.846 626.958 679.213 643.657 713.173 643.657C741.512 643.657 767.348 632.029 786.854 612.93C803.755 635.945 827.78 650.323 854.433 650.323C895.694 650.323 930.654 615.867 942.641 568.254C948.551 569.614 954.651 570.327 960.89 570.327C986.038 570.327 1008.95 558.753 1026.15 539.781C1037.51 554.385 1054.5 563.66 1073.49 563.66C1103.56 563.66 1128.62 540.398 1134.24 509.549C1151.97 547.007 1187.33 572.549 1228.06 572.549C1279.25 572.549 1321.96 532.187 1331.84 478.529C1333.26 486.289 1334 494.325 1334 502.554C1334 506.079 1333.86 509.568 1333.6 513.015H1334V890.003H34V539.639V513.015H35.7092C44.9817 570.841 90.8718 614.769 146.087 614.769C207.99 614.769 258.173 559.553 258.173 491.441C258.173 489.951 258.149 488.466 258.101 486.988Z" fill="url(#paint3_linear_125_3685)"/>
</g>
</g>
</g>
<defs>
<filter id="filter0_i_125_3685" x="34" y="0.110474" width="1300" height="822.779" filterUnits="userSpaceOnUse" color-interpolation-filters="sRGB">
<feFlood flood-opacity="0" result="BackgroundImageFix"/>
<feBlend mode="normal" in="SourceGraphic" in2="BackgroundImageFix" result="shape"/>
<feColorMatrix in="SourceAlpha" type="matrix" values="0 0 0 0 0 0 0 0 0 0 0 0 0 0 0 0 0 0 127 0" result="hardAlpha"/>
<feOffset dy="4"/>
<feGaussianBlur stdDeviation="14.45"/>
<feComposite in2="hardAlpha" operator="arithmetic" k2="-1" k3="1"/>
<feColorMatrix type="matrix" values="0 0 0 0 0 0 0 0 0 0 0 0 0 0 0 0 0 0 0.25 0"/>
<feBlend mode="normal" in2="shape" result="effect1_innerShadow_125_3685"/>
</filter>
<filter id="filter1_i_125_3685" x="1244.94" y="116.566" width="59.2253" height="61.2224" filterUnits="userSpaceOnUse" color-interpolation-filters="sRGB">
<feFlood flood-opacity="0" result="BackgroundImageFix"/>
<feBlend mode="normal" in="SourceGraphic" in2="BackgroundImageFix" result="shape"/>
<feColorMatrix in="SourceAlpha" type="matrix" values="0 0 0 0 0 0 0 0 0 0 0 0 0 0 0 0 0 0 127 0" result="hardAlpha"/>
<feOffset dy="2"/>
<feGaussianBlur stdDeviation="2.25"/>
<feComposite in2="hardAlpha" operator="arithmetic" k2="-1" k3="1"/>
<feColorMatrix type="matrix" values="0 0 0 0 0 0 0 0 0 0 0 0 0 0 0 0 0 0 0.5 0"/>
<feBlend mode="normal" in2="shape" result="effect1_innerShadow_125_3685"/>
</filter>
<filter id="filter2_i_125_3685" x="1183.65" y="123.076" width="28.3596" height="30.3611" filterUnits="userSpaceOnUse" color-interpolation-filters="sRGB">
<feFlood flood-opacity="0" result="BackgroundImageFix"/>
<feBlend mode="normal" in="SourceGraphic" in2="BackgroundImageFix" result="shape"/>
<feColorMatrix in="SourceAlpha" type="matrix" values="0 0 0 0 0 0 0 0 0 0 0 0 0 0 0 0 0 0 127 0" result="hardAlpha"/>
<feOffset dy="2"/>
<feGaussianBlur stdDeviation="2.25"/>
<feComposite in2="hardAlpha" operator="arithmetic" k2="-1" k3="1"/>
<feColorMatrix type="matrix" values="0 0 0 0 0 0 0 0 0 0 0 0 0 0 0 0 0 0 0.5 0"/>
<feBlend mode="normal" in2="shape" result="effect1_innerShadow_125_3685"/>
</filter>
<filter id="filter3_i_125_3685" x="1222.71" y="109.924" width="16.0742" height="18.0742" filterUnits="userSpaceOnUse" color-interpolation-filters="sRGB">
<feFlood flood-opacity="0" result="BackgroundImageFix"/>
<feBlend mode="normal" in="SourceGraphic" in2="BackgroundImageFix" result="shape"/>
<feColorMatrix in="SourceAlpha" type="matrix" values="0 0 0 0 0 0 0 0 0 0 0 0 0 0 0 0 0 0 127 0" result="hardAlpha"/>
<feOffset dy="2"/>
<feGaussianBlur stdDeviation="2.25"/>
<feComposite in2="hardAlpha" operator="arithmetic" k2="-1" k3="1"/>
<feColorMatrix type="matrix" values="0 0 0 0 0 0 0 0 0 0 0 0 0 0 0 0 0 0 0.5 0"/>
<feBlend mode="normal" in2="shape" result="effect1_innerShadow_125_3685"/>
</filter>
<filter id="filter4_d_125_3685" x="-101.3" y="246.7" width="1735.37" height="479.598" filterUnits="userSpaceOnUse" color-interpolation-filters="sRGB">
<feFlood flood-opacity="0" result="BackgroundImageFix"/>
<feColorMatrix in="SourceAlpha" type="matrix" values="0 0 0 0 0 0 0 0 0 0 0 0 0 0 0 0 0 0 127 0" result="hardAlpha"/>
<feOffset dy="4"/>
<feGaussianBlur stdDeviation="11.65"/>
<feComposite in2="hardAlpha" operator="out"/>
<feColorMatrix type="matrix" values="0 0 0 0 0 0 0 0 0 0 0 0 0 0 0 0 0 0 0.25 0"/>
<feBlend mode="normal" in2="BackgroundImageFix" result="effect1_dropShadow_125_3685"/>
<feBlend mode="normal" in="SourceGraphic" in2="effect1_dropShadow_125_3685" result="shape"/>
</filter>
<filter id="filter5_i_125_3685" x="86.1599" y="54.9756" width="59.2253" height="61.2224" filterUnits="userSpaceOnUse" color-interpolation-filters="sRGB">
<feFlood flood-opacity="0" result="BackgroundImageFix"/>
<feBlend mode="normal" in="SourceGraphic" in2="BackgroundImageFix" result="shape"/>
<feColorMatrix in="SourceAlpha" type="matrix" values="0 0 0 0 0 0 0 0 0 0 0 0 0 0 0 0 0 0 127 0" result="hardAlpha"/>
<feOffset dy="2"/>
<feGaussianBlur stdDeviation="2.25"/>
<feComposite in2="hardAlpha" operator="arithmetic" k2="-1" k3="1"/>
<feColorMatrix type="matrix" values="0 0 0 0 0 0 0 0 0 0 0 0 0 0 0 0 0 0 0.5 0"/>
<feBlend mode="normal" in2="shape" result="effect1_innerShadow_125_3685"/>
</filter>
<filter id="filter6_i_125_3685" x="178.311" y="61.4857" width="28.3597" height="30.3611" filterUnits="userSpaceOnUse" color-interpolation-filters="sRGB">
<feFlood flood-opacity="0" result="BackgroundImageFix"/>
<feBlend mode="normal" in="SourceGraphic" in2="BackgroundImageFix" result="shape"/>
<feColorMatrix in="SourceAlpha" type="matrix" values="0 0 0 0 0 0 0 0 0 0 0 0 0 0 0 0 0 0 127 0" result="hardAlpha"/>
<feOffset dy="2"/>
<feGaussianBlur stdDeviation="2.25"/>
<feComposite in2="hardAlpha" operator="arithmetic" k2="-1" k3="1"/>
<feColorMatrix type="matrix" values="0 0 0 0 0 0 0 0 0 0 0 0 0 0 0 0 0 0 0.5 0"/>
<feBlend mode="normal" in2="shape" result="effect1_innerShadow_125_3685"/>
</filter>
<filter id="filter7_i_125_3685" x="151.542" y="48.333" width="16.0742" height="18.0742" filterUnits="userSpaceOnUse" color-interpolation-filters="sRGB">
<feFlood flood-opacity="0" result="BackgroundImageFix"/>
<feBlend mode="normal" in="SourceGraphic" in2="BackgroundImageFix" result="shape"/>
<feColorMatrix in="SourceAlpha" type="matrix" values="0 0 0 0 0 0 0 0 0 0 0 0 0 0 0 0 0 0 127 0" result="hardAlpha"/>
<feOffset dy="2"/>
<feGaussianBlur stdDeviation="2.25"/>
<feComposite in2="hardAlpha" operator="arithmetic" k2="-1" k3="1"/>
<feColorMatrix type="matrix" values="0 0 0 0 0 0 0 0 0 0 0 0 0 0 0 0 0 0 0.5 0"/>
<feBlend mode="normal" in2="shape" result="effect1_innerShadow_125_3685"/>
</filter>
<filter id="filter8_d_125_3685" x="0" y="340.329" width="1368" height="593.674" filterUnits="userSpaceOnUse" color-interpolation-filters="sRGB">
<feFlood flood-opacity="0" result="BackgroundImageFix"/>
<feColorMatrix in="SourceAlpha" type="matrix" values="0 0 0 0 0 0 0 0 0 0 0 0 0 0 0 0 0 0 127 0" result="hardAlpha"/>
<feOffset dy="10"/>
<feGaussianBlur stdDeviation="17"/>
<feComposite in2="hardAlpha" operator="out"/>
<feColorMatrix type="matrix" values="0 0 0 0 0 0 0 0 0 0 0 0 0 0 0 0 0 0 0.2 0"/>
<feBlend mode="normal" in2="BackgroundImageFix" result="effect1_dropShadow_125_3685"/>
<feBlend mode="normal" in="SourceGraphic" in2="effect1_dropShadow_125_3685" result="shape"/>
</filter>
<filter id="filter9_d_125_3685" x="0" y="454.529" width="1368" height="479.474" filterUnits="userSpaceOnUse" color-interpolation-filters="sRGB">
<feFlood flood-opacity="0" result="BackgroundImageFix"/>
<feColorMatrix in="SourceAlpha" type="matrix" values="0 0 0 0 0 0 0 0 0 0 0 0 0 0 0 0 0 0 127 0" result="hardAlpha"/>
<feOffset dy="10"/>
<feGaussianBlur stdDeviation="17"/>
<feComposite in2="hardAlpha" operator="out"/>
<feColorMatrix type="matrix" values="0 0 0 0 0 0 0 0 0 0 0 0 0 0 0 0 0 0 0.2 0"/>
<feBlend mode="normal" in2="BackgroundImageFix" result="effect1_dropShadow_125_3685"/>
<feBlend mode="normal" in="SourceGraphic" in2="effect1_dropShadow_125_3685" result="shape"/>
</filter>
<linearGradient id="paint0_linear_125_3685" x1="684" y1="0.110474" x2="684" y2="818.889" gradientUnits="userSpaceOnUse">
<stop stop-color="#06A0DB"/>
<stop offset="0.6875" stop-color="#06A0DB"/>
<stop offset="1" stop-color="#06A0DB" stop-opacity="0"/>
</linearGradient>
<linearGradient id="paint1_linear_125_3685" x1="766.386" y1="266" x2="766.386" y2="620.329" gradientUnits="userSpaceOnUse">
<stop stop-color="#53D3FF"/>
<stop offset="1" stop-color="#00B8FF"/>
</linearGradient>
<linearGradient id="paint2_linear_125_3685" x1="684" y1="429.631" x2="684" y2="776.23" gradientUnits="userSpaceOnUse">
<stop stop-color="#B5F2FF"/>
<stop offset="1" stop-color="#3DC9FF"/>
</linearGradient>
<linearGradient id="paint3_linear_125_3685" x1="684" y1="471.323" x2="684" y2="890" gradientUnits="userSpaceOnUse">
<stop stop-color="#FFFEDA"/>
<stop offset="1" stop-color="#C1F7FF"/>
</linearGradient>
</defs>
</svg>
