<svg width="797" height="822" viewBox="0 0 797 822" fill="none" xmlns="http://www.w3.org/2000/svg">
<g opacity="0.15">
<g filter="url(#filter0_d_3_2)">
<path d="M153.239 170.068C180.404 132.457 193.985 106.685 203.039 68.9563L281.375 204.637L171.348 268.161C138.147 256.088 126.074 207.68 153.239 170.068Z" fill="#8CD8FA"/>
<path d="M315.505 76.3837C269.35 81.1035 240.24 79.9788 203.039 68.9563L281.375 204.637L391.402 141.113C397.546 106.324 361.66 71.6638 315.505 76.3837Z" fill="#8CD8FA"/>
</g>
<g filter="url(#filter1_d_3_2)">
<path fill-rule="evenodd" clip-rule="evenodd" d="M203.222 72.3361C227.289 121.175 213.419 157.977 208.453 179.099C203.488 200.221 208.743 225.363 224.141 231.034L180.495 258.058C159.394 242.967 159.637 197.817 174.89 169.876C178.34 163.557 182.26 157.678 186.147 151.848C200.182 130.797 213.783 110.397 203.222 72.3361Z" fill="#06A0DB"/>
</g>
<g filter="url(#filter2_d_3_2)">
<path fill-rule="evenodd" clip-rule="evenodd" d="M205.352 71.1067C235.614 116.368 274.421 122.758 295.196 129.019C315.971 135.28 335.117 152.401 332.329 168.572L377.555 144.286C375.036 118.466 335.814 96.1012 303.99 95.3408C296.793 95.1688 289.741 95.6239 282.749 96.0752C257.5 97.7045 233.033 99.2834 205.352 71.1067Z" fill="#06A0DB"/>
</g>
<g filter="url(#filter3_d_3_2)">
<path d="M644.153 651.121C616.988 688.732 603.408 714.504 594.353 752.232L516.017 616.551L626.044 553.027C659.245 565.1 671.318 613.509 644.153 651.121Z" fill="#8CD8FA"/>
<path d="M481.887 744.805C528.042 740.085 557.152 741.21 594.353 752.232L516.017 616.551L405.991 680.075C399.846 714.864 435.732 749.525 481.887 744.805Z" fill="#8CD8FA"/>
</g>
<g filter="url(#filter4_d_3_2)">
<path fill-rule="evenodd" clip-rule="evenodd" d="M594.17 748.852C570.104 700.014 583.973 663.212 588.939 642.089C593.904 620.967 588.649 595.826 573.252 590.155L616.897 563.131C637.998 578.222 637.756 623.371 622.502 651.312C619.052 657.631 615.132 663.511 611.245 669.341C597.21 690.392 583.609 710.792 594.17 748.852Z" fill="#06A0DB"/>
</g>
<g filter="url(#filter5_d_3_2)">
<path fill-rule="evenodd" clip-rule="evenodd" d="M592.04 750.082C561.778 704.82 522.972 698.431 502.196 692.17C481.421 685.909 462.276 668.787 465.064 652.617L419.837 676.903C422.356 702.722 461.578 725.087 493.402 725.848C500.599 726.02 507.651 725.565 514.644 725.113C539.892 723.484 564.359 721.905 592.04 750.082Z" fill="#06A0DB"/>
</g>
<g filter="url(#filter6_d_3_2)">
<path d="M484.269 77.7587C530.424 82.4785 559.533 81.3537 596.734 70.3313L518.399 206.012L408.372 142.488C402.227 107.699 438.113 73.0388 484.269 77.7587Z" fill="#8CD8FA"/>
<path d="M646.535 171.443C619.37 133.832 605.789 108.06 596.734 70.3313L518.399 206.012L628.425 269.536C661.626 257.463 673.7 209.055 646.535 171.443Z" fill="#8CD8FA"/>
</g>
<g filter="url(#filter7_d_3_2)">
<path fill-rule="evenodd" clip-rule="evenodd" d="M593.899 72.179C563.637 117.44 524.83 123.83 504.055 130.091C483.28 136.352 464.134 153.474 466.922 169.644L421.696 145.358C424.215 119.538 463.437 97.1735 495.261 96.4131C502.458 96.2411 509.51 96.6962 516.502 97.1474C541.751 98.7768 566.218 100.356 593.899 72.179Z" fill="#06A0DB"/>
</g>
<g filter="url(#filter8_d_3_2)">
<path fill-rule="evenodd" clip-rule="evenodd" d="M596.028 73.4089C571.962 122.247 585.831 159.049 590.797 180.172C595.763 201.294 590.507 226.436 575.11 232.106L618.755 259.131C639.856 244.039 639.614 198.89 624.36 170.949C620.911 164.63 616.99 158.75 613.103 152.92C599.068 131.869 585.467 111.47 596.028 73.4089Z" fill="#06A0DB"/>
</g>
<g filter="url(#filter9_d_3_2)">
<path d="M313.122 743.429C266.967 738.709 237.858 739.834 200.657 750.857L278.992 615.176L389.019 678.7C395.164 713.489 359.277 748.149 313.122 743.429Z" fill="#8CD8FA"/>
<path d="M150.856 649.745C178.021 687.356 191.602 713.128 200.657 750.857L278.992 615.176L168.966 551.652C135.765 563.725 123.691 612.133 150.856 649.745Z" fill="#8CD8FA"/>
</g>
<g filter="url(#filter10_d_3_2)">
<path fill-rule="evenodd" clip-rule="evenodd" d="M203.493 749.009C233.755 703.747 272.561 697.358 293.336 691.097C314.112 684.836 333.257 667.714 330.469 651.544L375.696 675.83C373.177 701.65 333.955 724.014 302.13 724.775C294.933 724.947 287.881 724.492 280.889 724.041C255.641 722.411 231.173 720.832 203.493 749.009Z" fill="#06A0DB"/>
</g>
<g filter="url(#filter11_d_3_2)">
<path fill-rule="evenodd" clip-rule="evenodd" d="M201.363 747.779C225.429 698.941 211.56 662.139 206.594 641.016C201.629 619.894 206.884 594.753 222.281 589.082L178.636 562.057C157.535 577.149 157.777 622.298 173.031 650.239C176.481 656.558 180.401 662.438 184.288 668.268C198.323 689.319 211.924 709.718 201.363 747.779Z" fill="#06A0DB"/>
</g>
<g filter="url(#filter12_d_3_2)">
<path d="M729.726 318.285C748.716 360.616 764.245 385.263 792.391 411.969L635.72 411.969L635.72 284.921C662.776 262.205 710.736 275.953 729.726 318.285Z" fill="#8CD8FA"/>
<path d="M729.726 505.653C748.716 463.322 764.245 438.675 792.391 411.969L635.72 411.969L635.72 539.017C662.776 561.733 710.736 547.985 729.726 505.653Z" fill="#8CD8FA"/>
</g>
<g filter="url(#filter13_d_3_2)">
<path fill-rule="evenodd" clip-rule="evenodd" d="M789.373 410.437C735.044 406.86 710.107 376.448 694.297 361.586C678.488 346.725 654.087 338.705 641.477 349.205L639.896 297.894C663.516 287.166 702.496 309.951 719.066 337.131C722.814 343.278 725.946 349.613 729.051 355.894C740.264 378.574 751.13 400.553 789.373 410.437Z" fill="#06A0DB"/>
</g>
<g filter="url(#filter14_d_3_2)">
<path fill-rule="evenodd" clip-rule="evenodd" d="M789.373 412.897C735.045 416.474 710.108 446.886 694.298 461.747C678.488 476.609 654.088 484.629 641.478 474.129L639.897 525.44C663.517 536.168 702.496 513.383 719.067 486.203C722.814 480.056 725.946 473.721 729.052 467.44C740.265 444.759 751.131 422.781 789.373 412.897Z" fill="#06A0DB"/>
</g>
<g filter="url(#filter15_d_3_2)">
<path d="M67.665 502.903C48.6751 460.572 33.1462 435.925 5 409.219L161.671 409.219L161.671 536.267C134.615 558.983 86.6552 545.235 67.665 502.903Z" fill="#8CD8FA"/>
<path d="M67.665 315.535C48.6751 357.866 33.1462 382.513 5 409.219L161.671 409.219L161.671 282.171C134.615 259.455 86.6552 273.203 67.665 315.535Z" fill="#8CD8FA"/>
</g>
<g filter="url(#filter16_d_3_2)">
<path fill-rule="evenodd" clip-rule="evenodd" d="M8.01831 410.751C62.3469 414.328 87.2836 444.741 103.093 459.602C118.903 474.464 143.304 482.483 155.914 471.984L157.495 523.294C133.875 534.022 94.8953 511.238 78.3246 484.057C74.5772 477.91 71.4452 471.576 68.3398 465.294C57.1267 442.614 46.2605 420.635 8.01831 410.751Z" fill="#06A0DB"/>
</g>
<g filter="url(#filter17_d_3_2)">
<path fill-rule="evenodd" clip-rule="evenodd" d="M8.01856 408.292C62.3472 404.715 87.2839 374.302 103.094 359.441C118.903 344.579 143.304 336.56 155.914 347.059L157.495 295.749C133.875 285.021 94.8956 307.805 78.3248 334.986C74.5774 341.133 71.4454 347.468 68.3401 353.749C57.127 376.429 46.2607 398.408 8.01856 408.292Z" fill="#06A0DB"/>
</g>
<g filter="url(#filter18_d_3_2)">
<circle cx="389.532" cy="409.946" r="272.015" fill="white"/>
</g>
<g filter="url(#filter19_d_3_2)">
<ellipse cx="389.532" cy="411.457" rx="250.858" ry="249.347" fill="#8CD8FA"/>
</g>
<g filter="url(#filter20_d_3_2)">
<circle cx="389.532" cy="409.946" r="226.679" fill="#06A0DB"/>
</g>
</g>
<defs>
<filter id="filter0_d_3_2" x="133.975" y="68.6563" width="262.413" height="207.805" filterUnits="userSpaceOnUse" color-interpolation-filters="sRGB">
<feFlood flood-opacity="0" result="BackgroundImageFix"/>
<feColorMatrix in="SourceAlpha" type="matrix" values="0 0 0 0 0 0 0 0 0 0 0 0 0 0 0 0 0 0 127 0" result="hardAlpha"/>
<feOffset dy="4"/>
<feGaussianBlur stdDeviation="2.15"/>
<feComposite in2="hardAlpha" operator="out"/>
<feColorMatrix type="matrix" values="0 0 0 0 0 0 0 0 0 0 0 0 0 0 0 0 0 0 1 0"/>
<feBlend mode="normal" in2="BackgroundImageFix" result="effect1_dropShadow_3_2"/>
<feBlend mode="normal" in="SourceGraphic" in2="effect1_dropShadow_3_2" result="shape"/>
</filter>
<filter id="filter1_d_3_2" x="159.685" y="72.0362" width="68.7555" height="194.322" filterUnits="userSpaceOnUse" color-interpolation-filters="sRGB">
<feFlood flood-opacity="0" result="BackgroundImageFix"/>
<feColorMatrix in="SourceAlpha" type="matrix" values="0 0 0 0 0 0 0 0 0 0 0 0 0 0 0 0 0 0 127 0" result="hardAlpha"/>
<feOffset dy="4"/>
<feGaussianBlur stdDeviation="2.15"/>
<feComposite in2="hardAlpha" operator="out"/>
<feColorMatrix type="matrix" values="0 0 0 0 0 0 0 0 0 0 0 0 0 0 0 0 0 0 1 0"/>
<feBlend mode="normal" in2="BackgroundImageFix" result="effect1_dropShadow_3_2"/>
<feBlend mode="normal" in="SourceGraphic" in2="effect1_dropShadow_3_2" result="shape"/>
</filter>
<filter id="filter2_d_3_2" x="201.052" y="70.8067" width="180.803" height="106.065" filterUnits="userSpaceOnUse" color-interpolation-filters="sRGB">
<feFlood flood-opacity="0" result="BackgroundImageFix"/>
<feColorMatrix in="SourceAlpha" type="matrix" values="0 0 0 0 0 0 0 0 0 0 0 0 0 0 0 0 0 0 127 0" result="hardAlpha"/>
<feOffset dy="4"/>
<feGaussianBlur stdDeviation="2.15"/>
<feComposite in2="hardAlpha" operator="out"/>
<feColorMatrix type="matrix" values="0 0 0 0 0 0 0 0 0 0 0 0 0 0 0 0 0 0 1 0"/>
<feBlend mode="normal" in2="BackgroundImageFix" result="effect1_dropShadow_3_2"/>
<feBlend mode="normal" in="SourceGraphic" in2="effect1_dropShadow_3_2" result="shape"/>
</filter>
<filter id="filter3_d_3_2" x="401.004" y="552.727" width="262.413" height="207.805" filterUnits="userSpaceOnUse" color-interpolation-filters="sRGB">
<feFlood flood-opacity="0" result="BackgroundImageFix"/>
<feColorMatrix in="SourceAlpha" type="matrix" values="0 0 0 0 0 0 0 0 0 0 0 0 0 0 0 0 0 0 127 0" result="hardAlpha"/>
<feOffset dy="4"/>
<feGaussianBlur stdDeviation="2.15"/>
<feComposite in2="hardAlpha" operator="out"/>
<feColorMatrix type="matrix" values="0 0 0 0 0 0 0 0 0 0 0 0 0 0 0 0 0 0 1 0"/>
<feBlend mode="normal" in2="BackgroundImageFix" result="effect1_dropShadow_3_2"/>
<feBlend mode="normal" in="SourceGraphic" in2="effect1_dropShadow_3_2" result="shape"/>
</filter>
<filter id="filter4_d_3_2" x="568.951" y="562.831" width="68.7555" height="194.322" filterUnits="userSpaceOnUse" color-interpolation-filters="sRGB">
<feFlood flood-opacity="0" result="BackgroundImageFix"/>
<feColorMatrix in="SourceAlpha" type="matrix" values="0 0 0 0 0 0 0 0 0 0 0 0 0 0 0 0 0 0 127 0" result="hardAlpha"/>
<feOffset dy="4"/>
<feGaussianBlur stdDeviation="2.15"/>
<feComposite in2="hardAlpha" operator="out"/>
<feColorMatrix type="matrix" values="0 0 0 0 0 0 0 0 0 0 0 0 0 0 0 0 0 0 1 0"/>
<feBlend mode="normal" in2="BackgroundImageFix" result="effect1_dropShadow_3_2"/>
<feBlend mode="normal" in="SourceGraphic" in2="effect1_dropShadow_3_2" result="shape"/>
</filter>
<filter id="filter5_d_3_2" x="415.537" y="652.317" width="180.803" height="106.065" filterUnits="userSpaceOnUse" color-interpolation-filters="sRGB">
<feFlood flood-opacity="0" result="BackgroundImageFix"/>
<feColorMatrix in="SourceAlpha" type="matrix" values="0 0 0 0 0 0 0 0 0 0 0 0 0 0 0 0 0 0 127 0" result="hardAlpha"/>
<feOffset dy="4"/>
<feGaussianBlur stdDeviation="2.15"/>
<feComposite in2="hardAlpha" operator="out"/>
<feColorMatrix type="matrix" values="0 0 0 0 0 0 0 0 0 0 0 0 0 0 0 0 0 0 1 0"/>
<feBlend mode="normal" in2="BackgroundImageFix" result="effect1_dropShadow_3_2"/>
<feBlend mode="normal" in="SourceGraphic" in2="effect1_dropShadow_3_2" result="shape"/>
</filter>
<filter id="filter6_d_3_2" x="403.385" y="70.0313" width="262.413" height="207.805" filterUnits="userSpaceOnUse" color-interpolation-filters="sRGB">
<feFlood flood-opacity="0" result="BackgroundImageFix"/>
<feColorMatrix in="SourceAlpha" type="matrix" values="0 0 0 0 0 0 0 0 0 0 0 0 0 0 0 0 0 0 127 0" result="hardAlpha"/>
<feOffset dy="4"/>
<feGaussianBlur stdDeviation="2.15"/>
<feComposite in2="hardAlpha" operator="out"/>
<feColorMatrix type="matrix" values="0 0 0 0 0 0 0 0 0 0 0 0 0 0 0 0 0 0 1 0"/>
<feBlend mode="normal" in2="BackgroundImageFix" result="effect1_dropShadow_3_2"/>
<feBlend mode="normal" in="SourceGraphic" in2="effect1_dropShadow_3_2" result="shape"/>
</filter>
<filter id="filter7_d_3_2" x="417.396" y="71.879" width="180.803" height="106.065" filterUnits="userSpaceOnUse" color-interpolation-filters="sRGB">
<feFlood flood-opacity="0" result="BackgroundImageFix"/>
<feColorMatrix in="SourceAlpha" type="matrix" values="0 0 0 0 0 0 0 0 0 0 0 0 0 0 0 0 0 0 127 0" result="hardAlpha"/>
<feOffset dy="4"/>
<feGaussianBlur stdDeviation="2.15"/>
<feComposite in2="hardAlpha" operator="out"/>
<feColorMatrix type="matrix" values="0 0 0 0 0 0 0 0 0 0 0 0 0 0 0 0 0 0 1 0"/>
<feBlend mode="normal" in2="BackgroundImageFix" result="effect1_dropShadow_3_2"/>
<feBlend mode="normal" in="SourceGraphic" in2="effect1_dropShadow_3_2" result="shape"/>
</filter>
<filter id="filter8_d_3_2" x="570.81" y="73.1089" width="68.7555" height="194.322" filterUnits="userSpaceOnUse" color-interpolation-filters="sRGB">
<feFlood flood-opacity="0" result="BackgroundImageFix"/>
<feColorMatrix in="SourceAlpha" type="matrix" values="0 0 0 0 0 0 0 0 0 0 0 0 0 0 0 0 0 0 127 0" result="hardAlpha"/>
<feOffset dy="4"/>
<feGaussianBlur stdDeviation="2.15"/>
<feComposite in2="hardAlpha" operator="out"/>
<feColorMatrix type="matrix" values="0 0 0 0 0 0 0 0 0 0 0 0 0 0 0 0 0 0 1 0"/>
<feBlend mode="normal" in2="BackgroundImageFix" result="effect1_dropShadow_3_2"/>
<feBlend mode="normal" in="SourceGraphic" in2="effect1_dropShadow_3_2" result="shape"/>
</filter>
<filter id="filter9_d_3_2" x="131.592" y="551.352" width="262.413" height="207.805" filterUnits="userSpaceOnUse" color-interpolation-filters="sRGB">
<feFlood flood-opacity="0" result="BackgroundImageFix"/>
<feColorMatrix in="SourceAlpha" type="matrix" values="0 0 0 0 0 0 0 0 0 0 0 0 0 0 0 0 0 0 127 0" result="hardAlpha"/>
<feOffset dy="4"/>
<feGaussianBlur stdDeviation="2.15"/>
<feComposite in2="hardAlpha" operator="out"/>
<feColorMatrix type="matrix" values="0 0 0 0 0 0 0 0 0 0 0 0 0 0 0 0 0 0 1 0"/>
<feBlend mode="normal" in2="BackgroundImageFix" result="effect1_dropShadow_3_2"/>
<feBlend mode="normal" in="SourceGraphic" in2="effect1_dropShadow_3_2" result="shape"/>
</filter>
<filter id="filter10_d_3_2" x="199.193" y="651.244" width="180.803" height="106.065" filterUnits="userSpaceOnUse" color-interpolation-filters="sRGB">
<feFlood flood-opacity="0" result="BackgroundImageFix"/>
<feColorMatrix in="SourceAlpha" type="matrix" values="0 0 0 0 0 0 0 0 0 0 0 0 0 0 0 0 0 0 127 0" result="hardAlpha"/>
<feOffset dy="4"/>
<feGaussianBlur stdDeviation="2.15"/>
<feComposite in2="hardAlpha" operator="out"/>
<feColorMatrix type="matrix" values="0 0 0 0 0 0 0 0 0 0 0 0 0 0 0 0 0 0 1 0"/>
<feBlend mode="normal" in2="BackgroundImageFix" result="effect1_dropShadow_3_2"/>
<feBlend mode="normal" in="SourceGraphic" in2="effect1_dropShadow_3_2" result="shape"/>
</filter>
<filter id="filter11_d_3_2" x="157.826" y="561.757" width="68.7555" height="194.322" filterUnits="userSpaceOnUse" color-interpolation-filters="sRGB">
<feFlood flood-opacity="0" result="BackgroundImageFix"/>
<feColorMatrix in="SourceAlpha" type="matrix" values="0 0 0 0 0 0 0 0 0 0 0 0 0 0 0 0 0 0 127 0" result="hardAlpha"/>
<feOffset dy="4"/>
<feGaussianBlur stdDeviation="2.15"/>
<feComposite in2="hardAlpha" operator="out"/>
<feColorMatrix type="matrix" values="0 0 0 0 0 0 0 0 0 0 0 0 0 0 0 0 0 0 1 0"/>
<feBlend mode="normal" in2="BackgroundImageFix" result="effect1_dropShadow_3_2"/>
<feBlend mode="normal" in="SourceGraphic" in2="effect1_dropShadow_3_2" result="shape"/>
</filter>
<filter id="filter12_d_3_2" x="631.42" y="273.757" width="165.271" height="284.425" filterUnits="userSpaceOnUse" color-interpolation-filters="sRGB">
<feFlood flood-opacity="0" result="BackgroundImageFix"/>
<feColorMatrix in="SourceAlpha" type="matrix" values="0 0 0 0 0 0 0 0 0 0 0 0 0 0 0 0 0 0 127 0" result="hardAlpha"/>
<feOffset dy="4"/>
<feGaussianBlur stdDeviation="2.15"/>
<feComposite in2="hardAlpha" operator="out"/>
<feColorMatrix type="matrix" values="0 0 0 0 0 0 0 0 0 0 0 0 0 0 0 0 0 0 1 0"/>
<feBlend mode="normal" in2="BackgroundImageFix" result="effect1_dropShadow_3_2"/>
<feBlend mode="normal" in="SourceGraphic" in2="effect1_dropShadow_3_2" result="shape"/>
</filter>
<filter id="filter13_d_3_2" x="635.596" y="294.885" width="158.076" height="123.852" filterUnits="userSpaceOnUse" color-interpolation-filters="sRGB">
<feFlood flood-opacity="0" result="BackgroundImageFix"/>
<feColorMatrix in="SourceAlpha" type="matrix" values="0 0 0 0 0 0 0 0 0 0 0 0 0 0 0 0 0 0 127 0" result="hardAlpha"/>
<feOffset dy="4"/>
<feGaussianBlur stdDeviation="2.15"/>
<feComposite in2="hardAlpha" operator="out"/>
<feColorMatrix type="matrix" values="0 0 0 0 0 0 0 0 0 0 0 0 0 0 0 0 0 0 1 0"/>
<feBlend mode="normal" in2="BackgroundImageFix" result="effect1_dropShadow_3_2"/>
<feBlend mode="normal" in="SourceGraphic" in2="effect1_dropShadow_3_2" result="shape"/>
</filter>
<filter id="filter14_d_3_2" x="635.597" y="412.597" width="158.076" height="123.852" filterUnits="userSpaceOnUse" color-interpolation-filters="sRGB">
<feFlood flood-opacity="0" result="BackgroundImageFix"/>
<feColorMatrix in="SourceAlpha" type="matrix" values="0 0 0 0 0 0 0 0 0 0 0 0 0 0 0 0 0 0 127 0" result="hardAlpha"/>
<feOffset dy="4"/>
<feGaussianBlur stdDeviation="2.15"/>
<feComposite in2="hardAlpha" operator="out"/>
<feColorMatrix type="matrix" values="0 0 0 0 0 0 0 0 0 0 0 0 0 0 0 0 0 0 1 0"/>
<feBlend mode="normal" in2="BackgroundImageFix" result="effect1_dropShadow_3_2"/>
<feBlend mode="normal" in="SourceGraphic" in2="effect1_dropShadow_3_2" result="shape"/>
</filter>
<filter id="filter15_d_3_2" x="0.7" y="271.006" width="165.271" height="284.425" filterUnits="userSpaceOnUse" color-interpolation-filters="sRGB">
<feFlood flood-opacity="0" result="BackgroundImageFix"/>
<feColorMatrix in="SourceAlpha" type="matrix" values="0 0 0 0 0 0 0 0 0 0 0 0 0 0 0 0 0 0 127 0" result="hardAlpha"/>
<feOffset dy="4"/>
<feGaussianBlur stdDeviation="2.15"/>
<feComposite in2="hardAlpha" operator="out"/>
<feColorMatrix type="matrix" values="0 0 0 0 0 0 0 0 0 0 0 0 0 0 0 0 0 0 1 0"/>
<feBlend mode="normal" in2="BackgroundImageFix" result="effect1_dropShadow_3_2"/>
<feBlend mode="normal" in="SourceGraphic" in2="effect1_dropShadow_3_2" result="shape"/>
</filter>
<filter id="filter16_d_3_2" x="3.71831" y="410.451" width="158.076" height="123.852" filterUnits="userSpaceOnUse" color-interpolation-filters="sRGB">
<feFlood flood-opacity="0" result="BackgroundImageFix"/>
<feColorMatrix in="SourceAlpha" type="matrix" values="0 0 0 0 0 0 0 0 0 0 0 0 0 0 0 0 0 0 127 0" result="hardAlpha"/>
<feOffset dy="4"/>
<feGaussianBlur stdDeviation="2.15"/>
<feComposite in2="hardAlpha" operator="out"/>
<feColorMatrix type="matrix" values="0 0 0 0 0 0 0 0 0 0 0 0 0 0 0 0 0 0 1 0"/>
<feBlend mode="normal" in2="BackgroundImageFix" result="effect1_dropShadow_3_2"/>
<feBlend mode="normal" in="SourceGraphic" in2="effect1_dropShadow_3_2" result="shape"/>
</filter>
<filter id="filter17_d_3_2" x="3.71855" y="292.739" width="158.076" height="123.852" filterUnits="userSpaceOnUse" color-interpolation-filters="sRGB">
<feFlood flood-opacity="0" result="BackgroundImageFix"/>
<feColorMatrix in="SourceAlpha" type="matrix" values="0 0 0 0 0 0 0 0 0 0 0 0 0 0 0 0 0 0 127 0" result="hardAlpha"/>
<feOffset dy="4"/>
<feGaussianBlur stdDeviation="2.15"/>
<feComposite in2="hardAlpha" operator="out"/>
<feColorMatrix type="matrix" values="0 0 0 0 0 0 0 0 0 0 0 0 0 0 0 0 0 0 1 0"/>
<feBlend mode="normal" in2="BackgroundImageFix" result="effect1_dropShadow_3_2"/>
<feBlend mode="normal" in="SourceGraphic" in2="effect1_dropShadow_3_2" result="shape"/>
</filter>
<filter id="filter18_d_3_2" x="113.217" y="137.632" width="552.629" height="552.629" filterUnits="userSpaceOnUse" color-interpolation-filters="sRGB">
<feFlood flood-opacity="0" result="BackgroundImageFix"/>
<feColorMatrix in="SourceAlpha" type="matrix" values="0 0 0 0 0 0 0 0 0 0 0 0 0 0 0 0 0 0 127 0" result="hardAlpha"/>
<feOffset dy="4"/>
<feGaussianBlur stdDeviation="2.15"/>
<feComposite in2="hardAlpha" operator="out"/>
<feColorMatrix type="matrix" values="0 0 0 0 0 0 0 0 0 0 0 0 0 0 0 0 0 0 1 0"/>
<feBlend mode="normal" in2="BackgroundImageFix" result="effect1_dropShadow_3_2"/>
<feBlend mode="normal" in="SourceGraphic" in2="effect1_dropShadow_3_2" result="shape"/>
</filter>
<filter id="filter19_d_3_2" x="134.374" y="161.811" width="510.316" height="507.294" filterUnits="userSpaceOnUse" color-interpolation-filters="sRGB">
<feFlood flood-opacity="0" result="BackgroundImageFix"/>
<feColorMatrix in="SourceAlpha" type="matrix" values="0 0 0 0 0 0 0 0 0 0 0 0 0 0 0 0 0 0 127 0" result="hardAlpha"/>
<feOffset dy="4"/>
<feGaussianBlur stdDeviation="2.15"/>
<feComposite in2="hardAlpha" operator="out"/>
<feColorMatrix type="matrix" values="0 0 0 0 0 0 0 0 0 0 0 0 0 0 0 0 0 0 1 0"/>
<feBlend mode="normal" in2="BackgroundImageFix" result="effect1_dropShadow_3_2"/>
<feBlend mode="normal" in="SourceGraphic" in2="effect1_dropShadow_3_2" result="shape"/>
</filter>
<filter id="filter20_d_3_2" x="158.553" y="182.967" width="461.958" height="461.958" filterUnits="userSpaceOnUse" color-interpolation-filters="sRGB">
<feFlood flood-opacity="0" result="BackgroundImageFix"/>
<feColorMatrix in="SourceAlpha" type="matrix" values="0 0 0 0 0 0 0 0 0 0 0 0 0 0 0 0 0 0 127 0" result="hardAlpha"/>
<feOffset dy="4"/>
<feGaussianBlur stdDeviation="2.15"/>
<feComposite in2="hardAlpha" operator="out"/>
<feColorMatrix type="matrix" values="0 0 0 0 0 0 0 0 0 0 0 0 0 0 0 0 0 0 1 0"/>
<feBlend mode="normal" in2="BackgroundImageFix" result="effect1_dropShadow_3_2"/>
<feBlend mode="normal" in="SourceGraphic" in2="effect1_dropShadow_3_2" result="shape"/>
</filter>
</defs>
</svg>
