<svg width="503" height="822" viewBox="0 0 503 822" fill="none" xmlns="http://www.w3.org/2000/svg">
<g opacity="0.15">
<g filter="url(#filter0_d_125_4925)">
<path d="M198.239 170.799C225.404 133.188 238.985 107.416 248.039 69.6877L326.375 205.369L216.348 268.893C183.147 256.82 171.074 208.411 198.239 170.799Z" fill="#8CD8FA"/>
<path d="M360.505 77.1151C314.35 81.8349 285.24 80.7101 248.039 69.6877L326.375 205.369L436.402 141.845C442.547 107.056 406.66 72.3952 360.505 77.1151Z" fill="#8CD8FA"/>
<path fill-rule="evenodd" clip-rule="evenodd" d="M248.222 73.0677C272.289 121.906 258.419 158.708 253.453 179.831C248.488 200.953 253.743 226.094 269.141 231.765L225.495 258.789C204.394 243.698 204.637 198.549 219.89 170.608C223.34 164.289 227.26 158.409 231.147 152.579C245.182 131.528 258.783 111.128 248.222 73.0677Z" fill="#06A0DB"/>
<path fill-rule="evenodd" clip-rule="evenodd" d="M250.352 71.838C280.614 117.1 319.421 123.489 340.196 129.75C360.971 136.011 380.117 153.133 377.329 169.303L422.555 145.017C420.036 119.198 380.814 96.8326 348.99 96.0721C341.793 95.9002 334.741 96.3553 327.749 96.8065C302.5 98.4359 278.033 100.015 250.352 71.838Z" fill="#06A0DB"/>
<path d="M689.153 651.852C661.988 689.463 648.408 715.235 639.353 752.964L561.017 617.282L671.044 553.759C704.245 565.832 716.318 614.24 689.153 651.852Z" fill="#8CD8FA"/>
<path d="M526.887 745.536C573.042 740.816 602.152 741.941 639.353 752.964L561.017 617.282L450.991 680.806C444.846 715.596 480.732 750.256 526.887 745.536Z" fill="#8CD8FA"/>
<path fill-rule="evenodd" clip-rule="evenodd" d="M637.04 750.813C606.778 705.552 567.972 699.162 547.196 692.901C526.421 686.64 507.276 669.519 510.064 653.348L464.837 677.634C467.356 703.454 506.578 725.819 538.402 726.579C545.599 726.751 552.651 726.296 559.644 725.845C584.892 724.215 609.359 722.637 637.04 750.813Z" fill="#06A0DB"/>
<path d="M529.269 78.4901C575.424 83.2099 604.533 82.0852 641.734 71.0627L563.399 206.744L453.372 143.22C447.227 108.431 483.113 73.7703 529.269 78.4901Z" fill="#8CD8FA"/>
<path d="M691.535 172.174C664.37 134.563 650.789 108.791 641.734 71.0627L563.399 206.744L673.425 270.268C706.626 258.195 718.7 209.786 691.535 172.174Z" fill="#8CD8FA"/>
<path fill-rule="evenodd" clip-rule="evenodd" d="M638.899 72.9103C608.637 118.172 569.83 124.561 549.055 130.822C528.28 137.083 509.134 154.205 511.922 170.375L466.696 146.089C469.215 120.27 508.437 97.9048 540.261 97.1444C547.458 96.9724 554.51 97.4275 561.502 97.8788C586.751 99.5081 611.218 101.087 638.899 72.9103Z" fill="#06A0DB"/>
<path d="M358.122 744.161C311.967 739.441 282.858 740.566 245.657 751.588L323.992 615.907L434.019 679.431C440.164 714.22 404.277 748.881 358.122 744.161Z" fill="#8CD8FA"/>
<path d="M195.856 650.476C223.021 688.088 236.602 713.86 245.657 751.588L323.992 615.907L213.966 552.383C180.765 564.456 168.691 612.865 195.856 650.476Z" fill="#8CD8FA"/>
<path fill-rule="evenodd" clip-rule="evenodd" d="M248.493 749.74C278.755 704.479 317.561 698.089 338.336 691.828C359.112 685.567 378.257 668.446 375.469 652.276L420.696 676.562C418.177 702.381 378.955 724.746 347.13 725.506C339.933 725.678 332.881 725.223 325.889 724.772C300.641 723.143 276.173 721.564 248.493 749.74Z" fill="#06A0DB"/>
<path fill-rule="evenodd" clip-rule="evenodd" d="M246.363 748.511C270.429 699.672 256.56 662.87 251.594 641.748C246.629 620.625 251.884 595.484 267.282 589.813L223.636 562.789C202.535 577.88 202.778 623.03 218.031 650.971C221.481 657.289 225.401 663.169 229.288 668.999C243.323 690.05 256.924 710.45 246.363 748.511Z" fill="#06A0DB"/>
<path d="M112.665 503.635C93.6751 461.304 78.1462 436.656 50 409.95L206.671 409.95L206.671 536.998C179.615 559.715 131.655 545.966 112.665 503.635Z" fill="#8CD8FA"/>
<path d="M112.665 316.266C93.6751 358.597 78.1462 383.245 50 409.95L206.671 409.95L206.671 282.903C179.615 260.186 131.655 273.935 112.665 316.266Z" fill="#8CD8FA"/>
<path fill-rule="evenodd" clip-rule="evenodd" d="M53.0183 411.483C107.347 415.06 132.284 445.472 148.093 460.334C163.903 475.195 188.304 483.215 200.914 472.715L202.495 524.026C178.875 534.754 139.895 511.969 123.325 484.789C119.577 478.642 116.445 472.307 113.34 466.026C102.127 443.346 91.2605 421.367 53.0183 411.483Z" fill="#06A0DB"/>
<path fill-rule="evenodd" clip-rule="evenodd" d="M53.0186 409.023C107.347 405.446 132.284 375.034 148.094 360.173C163.903 345.311 188.304 337.291 200.914 347.791L202.495 296.481C178.875 285.752 139.896 308.537 123.325 335.718C119.577 341.864 116.445 348.199 113.34 354.48C102.127 377.161 91.2607 399.139 53.0186 409.023Z" fill="#06A0DB"/>
</g>
<g filter="url(#filter1_d_125_4925)">
<circle cx="434.532" cy="410.678" r="272.015" fill="white"/>
<ellipse cx="434.532" cy="412.189" rx="250.858" ry="249.347" fill="#8CD8FA"/>
<circle cx="434.532" cy="410.677" r="226.679" fill="#06A0DB"/>
</g>
</g>
<defs>
<filter id="filter0_d_125_4925" x="0" y="23.6877" width="887.391" height="783.276" filterUnits="userSpaceOnUse" color-interpolation-filters="sRGB">
<feFlood flood-opacity="0" result="BackgroundImageFix"/>
<feColorMatrix in="SourceAlpha" type="matrix" values="0 0 0 0 0 0 0 0 0 0 0 0 0 0 0 0 0 0 127 0" result="hardAlpha"/>
<feOffset dy="4"/>
<feGaussianBlur stdDeviation="25"/>
<feComposite in2="hardAlpha" operator="out"/>
<feColorMatrix type="matrix" values="0 0 0 0 0 0 0 0 0 0 0 0 0 0 0 0 0 0 0.1 0"/>
<feBlend mode="normal" in2="BackgroundImageFix" result="effect1_dropShadow_125_4925"/>
<feBlend mode="normal" in="SourceGraphic" in2="effect1_dropShadow_125_4925" result="shape"/>
</filter>
<filter id="filter1_d_125_4925" x="112.517" y="92.6631" width="644.029" height="644.029" filterUnits="userSpaceOnUse" color-interpolation-filters="sRGB">
<feFlood flood-opacity="0" result="BackgroundImageFix"/>
<feColorMatrix in="SourceAlpha" type="matrix" values="0 0 0 0 0 0 0 0 0 0 0 0 0 0 0 0 0 0 127 0" result="hardAlpha"/>
<feOffset dy="4"/>
<feGaussianBlur stdDeviation="25"/>
<feComposite in2="hardAlpha" operator="out"/>
<feColorMatrix type="matrix" values="0 0 0 0 0 0 0 0 0 0 0 0 0 0 0 0 0 0 0.1 0"/>
<feBlend mode="normal" in2="BackgroundImageFix" result="effect1_dropShadow_125_4925"/>
<feBlend mode="normal" in="SourceGraphic" in2="effect1_dropShadow_125_4925" result="shape"/>
</filter>
</defs>
</svg>
