<svg width="76" height="72" viewBox="0 0 76 72" fill="none" xmlns="http://www.w3.org/2000/svg">
<g filter="url(#filter0_i_125_4143)">
<path d="M38 0C36.5798 1.6687 34.7 3.3939 32.6741 5.26255C30.0194 7.71099 27.1333 10.3614 24.8446 13.0988C22.5562 15.8361 20.9065 18.6428 20.53 21.3041C20.1713 23.8376 20.8327 26.3225 23.4235 29.0754H52.5766C55.1673 26.3225 55.8288 23.8376 55.4702 21.3043C55.0933 18.6428 53.4438 15.8361 51.1553 13.099C48.8667 10.3618 45.9806 7.71131 43.3257 5.2627C41.3001 3.39406 39.4202 1.6687 38 0ZM2.53333 6.35034C0 8.87533 0 11.4003 0 13.9253H1.10833V25.1299H0V27.9705H1.10833V72H3.95833V27.9705H5.06667V25.1299H3.95833V13.9253H5.06667C5.06667 11.4003 5.06667 8.87533 2.53333 6.35034ZM73.4667 6.35034C70.9333 8.87533 70.9333 11.4003 70.9333 13.9253H72.0417V25.1299H70.9333V27.9705H72.0417V72H74.8917V27.9705H76V25.1299H74.8917V13.9253H76C76 11.4003 76 8.87533 73.4667 6.35034ZM15.2 27.9705C12.6667 30.4955 10.1333 33.0205 10.1333 35.5455V39.1752H20.2667V35.5455C20.2667 33.0205 17.7333 30.4955 15.2 27.9705ZM60.8 27.9705C58.2667 30.4955 55.7333 33.0205 55.7333 35.5455V39.1752H65.8667V35.5455C65.8667 33.0205 63.3333 30.4955 60.8 27.9705ZM24.225 31.9158V34.1252H51.775V31.9158H24.225ZM24.225 36.9658V72H30.4V50.6954C30.4 48.1704 35.4667 43.1205 38 40.5955C40.5333 43.1205 45.6 48.1704 45.6 50.6954V72H51.775V36.9658H24.225ZM9.025 42.0158V72H21.375V42.0158H9.025ZM54.625 42.0158V72H66.975V42.0158H54.625ZM15.2 43.1205C15.2 43.1205 17.7333 44.4199 17.7333 45.6455V50.6954H12.6667V45.6455C12.6667 44.4199 15.2 43.1205 15.2 43.1205ZM60.8 43.9827C60.8 43.9827 63.3333 45.282 63.3333 46.5077V51.5577H58.2667V46.5077C58.2667 45.282 60.8 43.9827 60.8 43.9827ZM15.2 53.2204C15.2 53.2204 17.7333 54.5198 17.7333 55.7454V60.7954H12.6667V55.7454C12.6667 54.5198 15.2 53.2204 15.2 53.2204ZM60.8 53.2204C60.8 53.2204 63.3333 54.5198 63.3333 55.7454V60.7954H58.2667V55.7454C58.2667 54.5198 60.8 53.2204 60.8 53.2204ZM15.2 63.3204C15.2 63.3204 17.7333 64.6198 17.7333 65.8453V70.8953H12.6667V65.8453C12.6667 64.6198 15.2 63.3204 15.2 63.3204ZM60.8 63.3204C60.8 63.3204 63.3333 64.6198 63.3333 65.8453V70.8953H58.2667V65.8453C58.2667 64.6198 60.8 63.3204 60.8 63.3204Z" fill="white"/>
</g>
<defs>
<filter id="filter0_i_125_4143" x="0" y="0" width="76" height="72.8" filterUnits="userSpaceOnUse" color-interpolation-filters="sRGB">
<feFlood flood-opacity="0" result="BackgroundImageFix"/>
<feBlend mode="normal" in="SourceGraphic" in2="BackgroundImageFix" result="shape"/>
<feColorMatrix in="SourceAlpha" type="matrix" values="0 0 0 0 0 0 0 0 0 0 0 0 0 0 0 0 0 0 127 0" result="hardAlpha"/>
<feOffset dy="3"/>
<feGaussianBlur stdDeviation="0.4"/>
<feComposite in2="hardAlpha" operator="arithmetic" k2="-1" k3="1"/>
<feColorMatrix type="matrix" values="0 0 0 0 0 0 0 0 0 0 0 0 0 0 0 0 0 0 0.25 0"/>
<feBlend mode="normal" in2="shape" result="effect1_innerShadow_125_4143"/>
</filter>
</defs>
</svg>
